<?xml version="1.0" encoding="UTF-8"?>
<ffprobe>
    <frames>
        <frame media_type="audio" stream_index="1" key_frame="1" pts="0" pts_time="0.000000" pkt_dts="0" pkt_dts_time="0.000000" best_effort_timestamp="0" best_effort_timestamp_time="0.000000" duration="1024" duration_time="0.023220" pkt_pos="212057" pkt_size="6" sample_fmt="fltp" nb_samples="1024" channels="2" channel_layout="stereo"/>
        <frame media_type="audio" stream_index="1" key_frame="1" pts="1024" pts_time="0.023220" pkt_dts="1024" pkt_dts_time="0.023220" best_effort_timestamp="1024" best_effort_timestamp_time="0.023220" duration="1024" duration_time="0.023220" pkt_pos="212063" pkt_size="573" sample_fmt="fltp" nb_samples="1024" channels="2" channel_layout="stereo"/>
        <frame media_type="audio" stream_index="1" key_frame="1" pts="2048" pts_time="0.046440" pkt_dts="2048" pkt_dts_time="0.046440" best_effort_timestamp="2048" best_effort_timestamp_time="0.046440" duration="1024" duration_time="0.023220" pkt_pos="213241" pkt_size="743" sample_fmt="fltp" nb_samples="1024" channels="2" channel_layout="stereo"/>
        <frame media_type="audio" stream_index="1" key_frame="1" pts="3072" pts_time="0.069660" pkt_dts="3072" pkt_dts_time="0.069660" best_effort_timestamp="3072" best_effort_timestamp_time="0.069660" duration="1024" duration_time="0.023220" pkt_pos="278300" pkt_size="626" sample_fmt="fltp" nb_samples="1024" channels="2" channel_layout="stereo"/>
        <frame media_type="audio" stream_index="1" key_frame="1" pts="4096" pts_time="0.092880" pkt_dts="4096" pkt_dts_time="0.092880" best_effort_timestamp="4096" best_effort_timestamp_time="0.092880" duration="1024" duration_time="0.023220" pkt_pos="278926" pkt_size="656" sample_fmt="fltp" nb_samples="1024" channels="2" channel_layout="stereo"/>
        <frame media_type="audio" stream_index="1" key_frame="1" pts="5120" pts_time="0.116100" pkt_dts="5120" pkt_dts_time="0.116100" best_effort_timestamp="5120" best_effort_timestamp_time="0.116100" duration="1024" duration_time="0.023220" pkt_pos="301306" pkt_size="663" sample_fmt="fltp" nb_samples="1024" channels="2" channel_layout="stereo"/>
        <frame media_type="audio" stream_index="1" key_frame="1" pts="6144" pts_time="0.139320" pkt_dts="6144" pkt_dts_time="0.139320" best_effort_timestamp="6144" best_effort_timestamp_time="0.139320" duration="1024" duration_time="0.023220" pkt_pos="369128" pkt_size="622" sample_fmt="fltp" nb_samples="1024" channels="2" channel_layout="stereo"/>
        <frame media_type="audio" stream_index="1" key_frame="1" pts="7168" pts_time="0.162540" pkt_dts="7168" pkt_dts_time="0.162540" best_effort_timestamp="7168" best_effort_timestamp_time="0.162540" duration="1024" duration_time="0.023220" pkt_pos="369750" pkt_size="596" sample_fmt="fltp" nb_samples="1024" channels="2" channel_layout="stereo"/>
        <frame media_type="audio" stream_index="1" key_frame="1" pts="8192" pts_time="0.185760" pkt_dts="8192" pkt_dts_time="0.185760" best_effort_timestamp="8192" best_effort_timestamp_time="0.185760" duration="1024" duration_time="0.023220" pkt_pos="391450" pkt_size="612" sample_fmt="fltp" nb_samples="1024" channels="2" channel_layout="stereo"/>
        <frame media_type="audio" stream_index="1" key_frame="1" pts="9216" pts_time="0.208980" pkt_dts="9216" pkt_dts_time="0.208980" best_effort_timestamp="9216" best_effort_timestamp_time="0.208980" duration="1024" duration_time="0.023220" pkt_pos="463250" pkt_size="622" sample_fmt="fltp" nb_samples="1024" channels="2" channel_layout="stereo"/>
        <frame media_type="audio" stream_index="1" key_frame="1" pts="10240" pts_time="0.232200" pkt_dts="10240" pkt_dts_time="0.232200" best_effort_timestamp="10240" best_effort_timestamp_time="0.232200" duration="1024" duration_time="0.023220" pkt_pos="463872" pkt_size="631" sample_fmt="fltp" nb_samples="1024" channels="2" channel_layout="stereo"/>
        <frame media_type="audio" stream_index="1" key_frame="1" pts="11264" pts_time="0.255420" pkt_dts="11264" pkt_dts_time="0.255420" best_effort_timestamp="11264" best_effort_timestamp_time="0.255420" duration="1024" duration_time="0.023220" pkt_pos="481956" pkt_size="617" sample_fmt="fltp" nb_samples="1024" channels="2" channel_layout="stereo"/>
        <frame media_type="audio" stream_index="1" key_frame="1" pts="12288" pts_time="0.278639" pkt_dts="12288" pkt_dts_time="0.278639" best_effort_timestamp="12288" best_effort_timestamp_time="0.278639" duration="1024" duration_time="0.023220" pkt_pos="542452" pkt_size="606" sample_fmt="fltp" nb_samples="1024" channels="2" channel_layout="stereo"/>
        <frame media_type="audio" stream_index="1" key_frame="1" pts="13312" pts_time="0.301859" pkt_dts="13312" pkt_dts_time="0.301859" best_effort_timestamp="13312" best_effort_timestamp_time="0.301859" duration="1024" duration_time="0.023220" pkt_pos="560956" pkt_size="600" sample_fmt="fltp" nb_samples="1024" channels="2" channel_layout="stereo"/>
        <frame media_type="audio" stream_index="1" key_frame="1" pts="14336" pts_time="0.325079" pkt_dts="14336" pkt_dts_time="0.325079" best_effort_timestamp="14336" best_effort_timestamp_time="0.325079" duration="1024" duration_time="0.023220" pkt_pos="561556" pkt_size="603" sample_fmt="fltp" nb_samples="1024" channels="2" channel_layout="stereo"/>
        <frame media_type="audio" stream_index="1" key_frame="1" pts="15360" pts_time="0.348299" pkt_dts="15360" pkt_dts_time="0.348299" best_effort_timestamp="15360" best_effort_timestamp_time="0.348299" duration="1024" duration_time="0.023220" pkt_pos="623890" pkt_size="613" sample_fmt="fltp" nb_samples="1024" channels="2" channel_layout="stereo"/>
        <frame media_type="audio" stream_index="1" key_frame="1" pts="16384" pts_time="0.371519" pkt_dts="16384" pkt_dts_time="0.371519" best_effort_timestamp="16384" best_effort_timestamp_time="0.371519" duration="1024" duration_time="0.023220" pkt_pos="642001" pkt_size="597" sample_fmt="fltp" nb_samples="1024" channels="2" channel_layout="stereo"/>
        <frame media_type="audio" stream_index="1" key_frame="1" pts="17408" pts_time="0.394739" pkt_dts="17408" pkt_dts_time="0.394739" best_effort_timestamp="17408" best_effort_timestamp_time="0.394739" duration="1024" duration_time="0.023220" pkt_pos="642598" pkt_size="614" sample_fmt="fltp" nb_samples="1024" channels="2" channel_layout="stereo"/>
        <frame media_type="audio" stream_index="1" key_frame="1" pts="18432" pts_time="0.417959" pkt_dts="18432" pkt_dts_time="0.417959" best_effort_timestamp="18432" best_effort_timestamp_time="0.417959" duration="1024" duration_time="0.023220" pkt_pos="701233" pkt_size="621" sample_fmt="fltp" nb_samples="1024" channels="2" channel_layout="stereo"/>
        <frame media_type="audio" stream_index="1" key_frame="1" pts="19456" pts_time="0.441179" pkt_dts="19456" pkt_dts_time="0.441179" best_effort_timestamp="19456" best_effort_timestamp_time="0.441179" duration="1024" duration_time="0.023220" pkt_pos="717547" pkt_size="598" sample_fmt="fltp" nb_samples="1024" channels="2" channel_layout="stereo"/>
        <frame media_type="audio" stream_index="1" key_frame="1" pts="20480" pts_time="0.464399" pkt_dts="20480" pkt_dts_time="0.464399" best_effort_timestamp="20480" best_effort_timestamp_time="0.464399" duration="1024" duration_time="0.023220" pkt_pos="718145" pkt_size="596" sample_fmt="fltp" nb_samples="1024" channels="2" channel_layout="stereo"/>
        <frame media_type="audio" stream_index="1" key_frame="1" pts="21504" pts_time="0.487619" pkt_dts="21504" pkt_dts_time="0.487619" best_effort_timestamp="21504" best_effort_timestamp_time="0.487619" duration="1024" duration_time="0.023220" pkt_pos="785096" pkt_size="587" sample_fmt="fltp" nb_samples="1024" channels="2" channel_layout="stereo"/>
        <frame media_type="audio" stream_index="1" key_frame="1" pts="22528" pts_time="0.510839" pkt_dts="22528" pkt_dts_time="0.510839" best_effort_timestamp="22528" best_effort_timestamp_time="0.510839" duration="1024" duration_time="0.023220" pkt_pos="804533" pkt_size="568" sample_fmt="fltp" nb_samples="1024" channels="2" channel_layout="stereo"/>
        <frame media_type="audio" stream_index="1" key_frame="1" pts="23552" pts_time="0.534059" pkt_dts="23552" pkt_dts_time="0.534059" best_effort_timestamp="23552" best_effort_timestamp_time="0.534059" duration="1024" duration_time="0.023220" pkt_pos="864856" pkt_size="568" sample_fmt="fltp" nb_samples="1024" channels="2" channel_layout="stereo"/>
        <frame media_type="audio" stream_index="1" key_frame="1" pts="24576" pts_time="0.557279" pkt_dts="24576" pkt_dts_time="0.557279" best_effort_timestamp="24576" best_effort_timestamp_time="0.557279" duration="1024" duration_time="0.023220" pkt_pos="865424" pkt_size="606" sample_fmt="fltp" nb_samples="1024" channels="2" channel_layout="stereo"/>
        <frame media_type="audio" stream_index="1" key_frame="1" pts="25600" pts_time="0.580499" pkt_dts="25600" pkt_dts_time="0.580499" best_effort_timestamp="25600" best_effort_timestamp_time="0.580499" duration="1024" duration_time="0.023220" pkt_pos="881499" pkt_size="630" sample_fmt="fltp" nb_samples="1024" channels="2" channel_layout="stereo"/>
        <frame media_type="audio" stream_index="1" key_frame="1" pts="26624" pts_time="0.603719" pkt_dts="26624" pkt_dts_time="0.603719" best_effort_timestamp="26624" best_effort_timestamp_time="0.603719" duration="1024" duration_time="0.023220" pkt_pos="948346" pkt_size="615" sample_fmt="fltp" nb_samples="1024" channels="2" channel_layout="stereo"/>
        <frame media_type="audio" stream_index="1" key_frame="1" pts="27648" pts_time="0.626939" pkt_dts="27648" pkt_dts_time="0.626939" best_effort_timestamp="27648" best_effort_timestamp_time="0.626939" duration="1024" duration_time="0.023220" pkt_pos="948961" pkt_size="565" sample_fmt="fltp" nb_samples="1024" channels="2" channel_layout="stereo"/>
        <frame media_type="audio" stream_index="1" key_frame="1" pts="28672" pts_time="0.650159" pkt_dts="28672" pkt_dts_time="0.650159" best_effort_timestamp="28672" best_effort_timestamp_time="0.650159" duration="1024" duration_time="0.023220" pkt_pos="967382" pkt_size="555" sample_fmt="fltp" nb_samples="1024" channels="2" channel_layout="stereo"/>
        <frame media_type="audio" stream_index="1" key_frame="1" pts="29696" pts_time="0.673379" pkt_dts="29696" pkt_dts_time="0.673379" best_effort_timestamp="29696" best_effort_timestamp_time="0.673379" duration="1024" duration_time="0.023220" pkt_pos="1027182" pkt_size="560" sample_fmt="fltp" nb_samples="1024" channels="2" channel_layout="stereo"/>
        <frame media_type="audio" stream_index="1" key_frame="1" pts="30720" pts_time="0.696599" pkt_dts="30720" pkt_dts_time="0.696599" best_effort_timestamp="30720" best_effort_timestamp_time="0.696599" duration="1024" duration_time="0.023220" pkt_pos="1027742" pkt_size="542" sample_fmt="fltp" nb_samples="1024" channels="2" channel_layout="stereo"/>
        <frame media_type="audio" stream_index="1" key_frame="1" pts="31744" pts_time="0.719819" pkt_dts="31744" pkt_dts_time="0.719819" best_effort_timestamp="31744" best_effort_timestamp_time="0.719819" duration="1024" duration_time="0.023220" pkt_pos="1044957" pkt_size="553" sample_fmt="fltp" nb_samples="1024" channels="2" channel_layout="stereo"/>
        <frame media_type="audio" stream_index="1" key_frame="1" pts="32768" pts_time="0.743039" pkt_dts="32768" pkt_dts_time="0.743039" best_effort_timestamp="32768" best_effort_timestamp_time="0.743039" duration="1024" duration_time="0.023220" pkt_pos="1108438" pkt_size="543" sample_fmt="fltp" nb_samples="1024" channels="2" channel_layout="stereo"/>
        <frame media_type="audio" stream_index="1" key_frame="1" pts="33792" pts_time="0.766259" pkt_dts="33792" pkt_dts_time="0.766259" best_effort_timestamp="33792" best_effort_timestamp_time="0.766259" duration="1024" duration_time="0.023220" pkt_pos="1108981" pkt_size="501" sample_fmt="fltp" nb_samples="1024" channels="2" channel_layout="stereo"/>
        <frame media_type="audio" stream_index="1" key_frame="1" pts="34816" pts_time="0.789478" pkt_dts="34816" pkt_dts_time="0.789478" best_effort_timestamp="34816" best_effort_timestamp_time="0.789478" duration="1024" duration_time="0.023220" pkt_pos="1127733" pkt_size="500" sample_fmt="fltp" nb_samples="1024" channels="2" channel_layout="stereo"/>
        <frame media_type="audio" stream_index="1" key_frame="1" pts="35840" pts_time="0.812698" pkt_dts="35840" pkt_dts_time="0.812698" best_effort_timestamp="35840" best_effort_timestamp_time="0.812698" duration="1024" duration_time="0.023220" pkt_pos="1189993" pkt_size="544" sample_fmt="fltp" nb_samples="1024" channels="2" channel_layout="stereo"/>
        <frame media_type="audio" stream_index="1" key_frame="1" pts="36864" pts_time="0.835918" pkt_dts="36864" pkt_dts_time="0.835918" best_effort_timestamp="36864" best_effort_timestamp_time="0.835918" duration="1024" duration_time="0.023220" pkt_pos="1208531" pkt_size="552" sample_fmt="fltp" nb_samples="1024" channels="2" channel_layout="stereo"/>
        <frame media_type="audio" stream_index="1" key_frame="1" pts="37888" pts_time="0.859138" pkt_dts="37888" pkt_dts_time="0.859138" best_effort_timestamp="37888" best_effort_timestamp_time="0.859138" duration="1024" duration_time="0.023220" pkt_pos="1209083" pkt_size="592" sample_fmt="fltp" nb_samples="1024" channels="2" channel_layout="stereo"/>
        <frame media_type="audio" stream_index="1" key_frame="1" pts="38912" pts_time="0.882358" pkt_dts="38912" pkt_dts_time="0.882358" best_effort_timestamp="38912" best_effort_timestamp_time="0.882358" duration="1024" duration_time="0.023220" pkt_pos="1272796" pkt_size="583" sample_fmt="fltp" nb_samples="1024" channels="2" channel_layout="stereo"/>
        <frame media_type="audio" stream_index="1" key_frame="1" pts="39936" pts_time="0.905578" pkt_dts="39936" pkt_dts_time="0.905578" best_effort_timestamp="39936" best_effort_timestamp_time="0.905578" duration="1024" duration_time="0.023220" pkt_pos="1290268" pkt_size="577" sample_fmt="fltp" nb_samples="1024" channels="2" channel_layout="stereo"/>
        <frame media_type="audio" stream_index="1" key_frame="1" pts="40960" pts_time="0.928798" pkt_dts="40960" pkt_dts_time="0.928798" best_effort_timestamp="40960" best_effort_timestamp_time="0.928798" duration="1024" duration_time="0.023220" pkt_pos="1290845" pkt_size="516" sample_fmt="fltp" nb_samples="1024" channels="2" channel_layout="stereo"/>
        <frame media_type="audio" stream_index="1" key_frame="1" pts="41984" pts_time="0.952018" pkt_dts="41984" pkt_dts_time="0.952018" best_effort_timestamp="41984" best_effort_timestamp_time="0.952018" duration="1024" duration_time="0.023220" pkt_pos="1352051" pkt_size="491" sample_fmt="fltp" nb_samples="1024" channels="2" channel_layout="stereo"/>
        <frame media_type="audio" stream_index="1" key_frame="1" pts="43008" pts_time="0.975238" pkt_dts="43008" pkt_dts_time="0.975238" best_effort_timestamp="43008" best_effort_timestamp_time="0.975238" duration="1024" duration_time="0.023220" pkt_pos="1369993" pkt_size="473" sample_fmt="fltp" nb_samples="1024" channels="2" channel_layout="stereo"/>
        <frame media_type="audio" stream_index="1" key_frame="1" pts="44032" pts_time="0.998458" pkt_dts="44032" pkt_dts_time="0.998458" best_effort_timestamp="44032" best_effort_timestamp_time="0.998458" duration="1024" duration_time="0.023220" pkt_pos="1370466" pkt_size="493" sample_fmt="fltp" nb_samples="1024" channels="2" channel_layout="stereo"/>
        <frame media_type="audio" stream_index="1" key_frame="1" pts="45056" pts_time="1.021678" pkt_dts="45056" pkt_dts_time="1.021678" best_effort_timestamp="45056" best_effort_timestamp_time="1.021678" duration="1024" duration_time="0.023220" pkt_pos="1488705" pkt_size="559" sample_fmt="fltp" nb_samples="1024" channels="2" channel_layout="stereo"/>
        <frame media_type="audio" stream_index="1" key_frame="1" pts="46080" pts_time="1.044898" pkt_dts="46080" pkt_dts_time="1.044898" best_effort_timestamp="46080" best_effort_timestamp_time="1.044898" duration="1024" duration_time="0.023220" pkt_pos="1509644" pkt_size="563" sample_fmt="fltp" nb_samples="1024" channels="2" channel_layout="stereo"/>
        <frame media_type="audio" stream_index="1" key_frame="1" pts="47104" pts_time="1.068118" pkt_dts="47104" pkt_dts_time="1.068118" best_effort_timestamp="47104" best_effort_timestamp_time="1.068118" duration="1024" duration_time="0.023220" pkt_pos="1561747" pkt_size="609" sample_fmt="fltp" nb_samples="1024" channels="2" channel_layout="stereo"/>
        <frame media_type="audio" stream_index="1" key_frame="1" pts="48128" pts_time="1.091338" pkt_dts="48128" pkt_dts_time="1.091338" best_effort_timestamp="48128" best_effort_timestamp_time="1.091338" duration="1024" duration_time="0.023220" pkt_pos="1562356" pkt_size="567" sample_fmt="fltp" nb_samples="1024" channels="2" channel_layout="stereo"/>
        <frame media_type="audio" stream_index="1" key_frame="1" pts="49152" pts_time="1.114558" pkt_dts="49152" pkt_dts_time="1.114558" best_effort_timestamp="49152" best_effort_timestamp_time="1.114558" duration="1024" duration_time="0.023220" pkt_pos="1580567" pkt_size="529" sample_fmt="fltp" nb_samples="1024" channels="2" channel_layout="stereo"/>
        <frame media_type="audio" stream_index="1" key_frame="1" pts="50176" pts_time="1.137778" pkt_dts="50176" pkt_dts_time="1.137778" best_effort_timestamp="50176" best_effort_timestamp_time="1.137778" duration="1024" duration_time="0.023220" pkt_pos="1631366" pkt_size="545" sample_fmt="fltp" nb_samples="1024" channels="2" channel_layout="stereo"/>
        <frame media_type="audio" stream_index="1" key_frame="1" pts="51200" pts_time="1.160998" pkt_dts="51200" pkt_dts_time="1.160998" best_effort_timestamp="51200" best_effort_timestamp_time="1.160998" duration="1024" duration_time="0.023220" pkt_pos="1631911" pkt_size="552" sample_fmt="fltp" nb_samples="1024" channels="2" channel_layout="stereo"/>
        <frame media_type="audio" stream_index="1" key_frame="1" pts="52224" pts_time="1.184218" pkt_dts="52224" pkt_dts_time="1.184218" best_effort_timestamp="52224" best_effort_timestamp_time="1.184218" duration="1024" duration_time="0.023220" pkt_pos="1640159" pkt_size="572" sample_fmt="fltp" nb_samples="1024" channels="2" channel_layout="stereo"/>
        <frame media_type="audio" stream_index="1" key_frame="1" pts="53248" pts_time="1.207438" pkt_dts="53248" pkt_dts_time="1.207438" best_effort_timestamp="53248" best_effort_timestamp_time="1.207438" duration="1024" duration_time="0.023220" pkt_pos="1705113" pkt_size="568" sample_fmt="fltp" nb_samples="1024" channels="2" channel_layout="stereo"/>
        <frame media_type="audio" stream_index="1" key_frame="1" pts="54272" pts_time="1.230658" pkt_dts="54272" pkt_dts_time="1.230658" best_effort_timestamp="54272" best_effort_timestamp_time="1.230658" duration="1024" duration_time="0.023220" pkt_pos="1705681" pkt_size="583" sample_fmt="fltp" nb_samples="1024" channels="2" channel_layout="stereo"/>
        <frame media_type="audio" stream_index="1" key_frame="1" pts="55296" pts_time="1.253878" pkt_dts="55296" pkt_dts_time="1.253878" best_effort_timestamp="55296" best_effort_timestamp_time="1.253878" duration="1024" duration_time="0.023220" pkt_pos="1727801" pkt_size="644" sample_fmt="fltp" nb_samples="1024" channels="2" channel_layout="stereo"/>
        <frame media_type="audio" stream_index="1" key_frame="1" pts="56320" pts_time="1.277098" pkt_dts="56320" pkt_dts_time="1.277098" best_effort_timestamp="56320" best_effort_timestamp_time="1.277098" duration="1024" duration_time="0.023220" pkt_pos="1785110" pkt_size="626" sample_fmt="fltp" nb_samples="1024" channels="2" channel_layout="stereo"/>
        <frame media_type="audio" stream_index="1" key_frame="1" pts="57344" pts_time="1.300317" pkt_dts="57344" pkt_dts_time="1.300317" best_effort_timestamp="57344" best_effort_timestamp_time="1.300317" duration="1024" duration_time="0.023220" pkt_pos="1803954" pkt_size="582" sample_fmt="fltp" nb_samples="1024" channels="2" channel_layout="stereo"/>
        <frame media_type="audio" stream_index="1" key_frame="1" pts="58368" pts_time="1.323537" pkt_dts="58368" pkt_dts_time="1.323537" best_effort_timestamp="58368" best_effort_timestamp_time="1.323537" duration="1024" duration_time="0.023220" pkt_pos="1804536" pkt_size="572" sample_fmt="fltp" nb_samples="1024" channels="2" channel_layout="stereo"/>
        <frame media_type="audio" stream_index="1" key_frame="1" pts="59392" pts_time="1.346757" pkt_dts="59392" pkt_dts_time="1.346757" best_effort_timestamp="59392" best_effort_timestamp_time="1.346757" duration="1024" duration_time="0.023220" pkt_pos="1861771" pkt_size="645" sample_fmt="fltp" nb_samples="1024" channels="2" channel_layout="stereo"/>
        <frame media_type="audio" stream_index="1" key_frame="1" pts="60416" pts_time="1.369977" pkt_dts="60416" pkt_dts_time="1.369977" best_effort_timestamp="60416" best_effort_timestamp_time="1.369977" duration="1024" duration_time="0.023220" pkt_pos="1880488" pkt_size="694" sample_fmt="fltp" nb_samples="1024" channels="2" channel_layout="stereo"/>
        <frame media_type="audio" stream_index="1" key_frame="1" pts="61440" pts_time="1.393197" pkt_dts="61440" pkt_dts_time="1.393197" best_effort_timestamp="61440" best_effort_timestamp_time="1.393197" duration="1024" duration_time="0.023220" pkt_pos="1881182" pkt_size="702" sample_fmt="fltp" nb_samples="1024" channels="2" channel_layout="stereo"/>
        <frame media_type="audio" stream_index="1" key_frame="1" pts="62464" pts_time="1.416417" pkt_dts="62464" pkt_dts_time="1.416417" best_effort_timestamp="62464" best_effort_timestamp_time="1.416417" duration="1024" duration_time="0.023220" pkt_pos="1936636" pkt_size="684" sample_fmt="fltp" nb_samples="1024" channels="2" channel_layout="stereo"/>
        <frame media_type="audio" stream_index="1" key_frame="1" pts="63488" pts_time="1.439637" pkt_dts="63488" pkt_dts_time="1.439637" best_effort_timestamp="63488" best_effort_timestamp_time="1.439637" duration="1024" duration_time="0.023220" pkt_pos="1954924" pkt_size="661" sample_fmt="fltp" nb_samples="1024" channels="2" channel_layout="stereo"/>
        <frame media_type="audio" stream_index="1" key_frame="1" pts="64512" pts_time="1.462857" pkt_dts="64512" pkt_dts_time="1.462857" best_effort_timestamp="64512" best_effort_timestamp_time="1.462857" duration="1024" duration_time="0.023220" pkt_pos="1955585" pkt_size="678" sample_fmt="fltp" nb_samples="1024" channels="2" channel_layout="stereo"/>
        <frame media_type="audio" stream_index="1" key_frame="1" pts="65536" pts_time="1.486077" pkt_dts="65536" pkt_dts_time="1.486077" best_effort_timestamp="65536" best_effort_timestamp_time="1.486077" duration="1024" duration_time="0.023220" pkt_pos="2004707" pkt_size="685" sample_fmt="fltp" nb_samples="1024" channels="2" channel_layout="stereo"/>
        <frame media_type="audio" stream_index="1" key_frame="1" pts="66560" pts_time="1.509297" pkt_dts="66560" pkt_dts_time="1.509297" best_effort_timestamp="66560" best_effort_timestamp_time="1.509297" duration="1024" duration_time="0.023220" pkt_pos="2020014" pkt_size="662" sample_fmt="fltp" nb_samples="1024" channels="2" channel_layout="stereo"/>
        <frame media_type="audio" stream_index="1" key_frame="1" pts="67584" pts_time="1.532517" pkt_dts="67584" pkt_dts_time="1.532517" best_effort_timestamp="67584" best_effort_timestamp_time="1.532517" duration="1024" duration_time="0.023220" pkt_pos="2020676" pkt_size="609" sample_fmt="fltp" nb_samples="1024" channels="2" channel_layout="stereo"/>
        <frame media_type="audio" stream_index="1" key_frame="1" pts="68608" pts_time="1.555737" pkt_dts="68608" pkt_dts_time="1.555737" best_effort_timestamp="68608" best_effort_timestamp_time="1.555737" duration="1024" duration_time="0.023220" pkt_pos="2066084" pkt_size="598" sample_fmt="fltp" nb_samples="1024" channels="2" channel_layout="stereo"/>
        <frame media_type="audio" stream_index="1" key_frame="1" pts="69632" pts_time="1.578957" pkt_dts="69632" pkt_dts_time="1.578957" best_effort_timestamp="69632" best_effort_timestamp_time="1.578957" duration="1024" duration_time="0.023220" pkt_pos="2082231" pkt_size="582" sample_fmt="fltp" nb_samples="1024" channels="2" channel_layout="stereo"/>
        <frame media_type="audio" stream_index="1" key_frame="1" pts="70656" pts_time="1.602177" pkt_dts="70656" pkt_dts_time="1.602177" best_effort_timestamp="70656" best_effort_timestamp_time="1.602177" duration="1024" duration_time="0.023220" pkt_pos="2112660" pkt_size="576" sample_fmt="fltp" nb_samples="1024" channels="2" channel_layout="stereo"/>
        <frame media_type="audio" stream_index="1" key_frame="1" pts="71680" pts_time="1.625397" pkt_dts="71680" pkt_dts_time="1.625397" best_effort_timestamp="71680" best_effort_timestamp_time="1.625397" duration="1024" duration_time="0.023220" pkt_pos="2113236" pkt_size="601" sample_fmt="fltp" nb_samples="1024" channels="2" channel_layout="stereo"/>
        <frame media_type="audio" stream_index="1" key_frame="1" pts="72704" pts_time="1.648617" pkt_dts="72704" pkt_dts_time="1.648617" best_effort_timestamp="72704" best_effort_timestamp_time="1.648617" duration="1024" duration_time="0.023220" pkt_pos="2123799" pkt_size="571" sample_fmt="fltp" nb_samples="1024" channels="2" channel_layout="stereo"/>
        <frame media_type="audio" stream_index="1" key_frame="1" pts="73728" pts_time="1.671837" pkt_dts="73728" pkt_dts_time="1.671837" best_effort_timestamp="73728" best_effort_timestamp_time="1.671837" duration="1024" duration_time="0.023220" pkt_pos="2166497" pkt_size="496" sample_fmt="fltp" nb_samples="1024" channels="2" channel_layout="stereo"/>
        <frame media_type="audio" stream_index="1" key_frame="1" pts="74752" pts_time="1.695057" pkt_dts="74752" pkt_dts_time="1.695057" best_effort_timestamp="74752" best_effort_timestamp_time="1.695057" duration="1024" duration_time="0.023220" pkt_pos="2166993" pkt_size="596" sample_fmt="fltp" nb_samples="1024" channels="2" channel_layout="stereo"/>
        <frame media_type="audio" stream_index="1" key_frame="1" pts="75776" pts_time="1.718277" pkt_dts="75776" pkt_dts_time="1.718277" best_effort_timestamp="75776" best_effort_timestamp_time="1.718277" duration="1024" duration_time="0.023220" pkt_pos="2181921" pkt_size="593" sample_fmt="fltp" nb_samples="1024" channels="2" channel_layout="stereo"/>
        <frame media_type="audio" stream_index="1" key_frame="1" pts="76800" pts_time="1.741497" pkt_dts="76800" pkt_dts_time="1.741497" best_effort_timestamp="76800" best_effort_timestamp_time="1.741497" duration="1024" duration_time="0.023220" pkt_pos="2212120" pkt_size="575" sample_fmt="fltp" nb_samples="1024" channels="2" channel_layout="stereo"/>
        <frame media_type="audio" stream_index="1" key_frame="1" pts="77824" pts_time="1.764717" pkt_dts="77824" pkt_dts_time="1.764717" best_effort_timestamp="77824" best_effort_timestamp_time="1.764717" duration="1024" duration_time="0.023220" pkt_pos="2212695" pkt_size="548" sample_fmt="fltp" nb_samples="1024" channels="2" channel_layout="stereo"/>
        <frame media_type="audio" stream_index="1" key_frame="1" pts="78848" pts_time="1.787937" pkt_dts="78848" pkt_dts_time="1.787937" best_effort_timestamp="78848" best_effort_timestamp_time="1.787937" duration="1024" duration_time="0.023220" pkt_pos="2226887" pkt_size="562" sample_fmt="fltp" nb_samples="1024" channels="2" channel_layout="stereo"/>
        <frame media_type="audio" stream_index="1" key_frame="1" pts="79872" pts_time="1.811156" pkt_dts="79872" pkt_dts_time="1.811156" best_effort_timestamp="79872" best_effort_timestamp_time="1.811156" duration="1024" duration_time="0.023220" pkt_pos="2260053" pkt_size="538" sample_fmt="fltp" nb_samples="1024" channels="2" channel_layout="stereo"/>
        <frame media_type="audio" stream_index="1" key_frame="1" pts="80896" pts_time="1.834376" pkt_dts="80896" pkt_dts_time="1.834376" best_effort_timestamp="80896" best_effort_timestamp_time="1.834376" duration="1024" duration_time="0.023220" pkt_pos="2274593" pkt_size="637" sample_fmt="fltp" nb_samples="1024" channels="2" channel_layout="stereo"/>
        <frame media_type="audio" stream_index="1" key_frame="1" pts="81920" pts_time="1.857596" pkt_dts="81920" pkt_dts_time="1.857596" best_effort_timestamp="81920" best_effort_timestamp_time="1.857596" duration="1024" duration_time="0.023220" pkt_pos="2275230" pkt_size="575" sample_fmt="fltp" nb_samples="1024" channels="2" channel_layout="stereo"/>
        <frame media_type="audio" stream_index="1" key_frame="1" pts="82944" pts_time="1.880816" pkt_dts="82944" pkt_dts_time="1.880816" best_effort_timestamp="82944" best_effort_timestamp_time="1.880816" duration="1024" duration_time="0.023220" pkt_pos="2305963" pkt_size="601" sample_fmt="fltp" nb_samples="1024" channels="2" channel_layout="stereo"/>
        <frame media_type="audio" stream_index="1" key_frame="1" pts="83968" pts_time="1.904036" pkt_dts="83968" pkt_dts_time="1.904036" best_effort_timestamp="83968" best_effort_timestamp_time="1.904036" duration="1024" duration_time="0.023220" pkt_pos="2319431" pkt_size="557" sample_fmt="fltp" nb_samples="1024" channels="2" channel_layout="stereo"/>
        <frame media_type="audio" stream_index="1" key_frame="1" pts="84992" pts_time="1.927256" pkt_dts="84992" pkt_dts_time="1.927256" best_effort_timestamp="84992" best_effort_timestamp_time="1.927256" duration="1024" duration_time="0.023220" pkt_pos="2319988" pkt_size="554" sample_fmt="fltp" nb_samples="1024" channels="2" channel_layout="stereo"/>
        <frame media_type="audio" stream_index="1" key_frame="1" pts="86016" pts_time="1.950476" pkt_dts="86016" pkt_dts_time="1.950476" best_effort_timestamp="86016" best_effort_timestamp_time="1.950476" duration="1024" duration_time="0.023220" pkt_pos="2365663" pkt_size="615" sample_fmt="fltp" nb_samples="1024" channels="2" channel_layout="stereo"/>
        <frame media_type="audio" stream_index="1" key_frame="1" pts="87040" pts_time="1.973696" pkt_dts="87040" pkt_dts_time="1.973696" best_effort_timestamp="87040" best_effort_timestamp_time="1.973696" duration="1024" duration_time="0.023220" pkt_pos="2380730" pkt_size="593" sample_fmt="fltp" nb_samples="1024" channels="2" channel_layout="stereo"/>
        <frame media_type="audio" stream_index="1" key_frame="1" pts="88064" pts_time="1.996916" pkt_dts="88064" pkt_dts_time="1.996916" best_effort_timestamp="88064" best_effort_timestamp_time="1.996916" duration="1024" duration_time="0.023220" pkt_pos="2381323" pkt_size="575" sample_fmt="fltp" nb_samples="1024" channels="2" channel_layout="stereo"/>
        <frame media_type="audio" stream_index="1" key_frame="1" pts="89088" pts_time="2.020136" pkt_dts="89088" pkt_dts_time="2.020136" best_effort_timestamp="89088" best_effort_timestamp_time="2.020136" duration="1024" duration_time="0.023220" pkt_pos="2487554" pkt_size="589" sample_fmt="fltp" nb_samples="1024" channels="2" channel_layout="stereo"/>
        <frame media_type="audio" stream_index="1" key_frame="1" pts="90112" pts_time="2.043356" pkt_dts="90112" pkt_dts_time="2.043356" best_effort_timestamp="90112" best_effort_timestamp_time="2.043356" duration="1024" duration_time="0.023220" pkt_pos="2537255" pkt_size="585" sample_fmt="fltp" nb_samples="1024" channels="2" channel_layout="stereo"/>
        <frame media_type="audio" stream_index="1" key_frame="1" pts="91136" pts_time="2.066576" pkt_dts="91136" pkt_dts_time="2.066576" best_effort_timestamp="91136" best_effort_timestamp_time="2.066576" duration="1024" duration_time="0.023220" pkt_pos="2537840" pkt_size="573" sample_fmt="fltp" nb_samples="1024" channels="2" channel_layout="stereo"/>
        <frame media_type="audio" stream_index="1" key_frame="1" pts="92160" pts_time="2.089796" pkt_dts="92160" pkt_dts_time="2.089796" best_effort_timestamp="92160" best_effort_timestamp_time="2.089796" duration="1024" duration_time="0.023220" pkt_pos="2586947" pkt_size="564" sample_fmt="fltp" nb_samples="1024" channels="2" channel_layout="stereo"/>
        <frame media_type="audio" stream_index="1" key_frame="1" pts="93184" pts_time="2.113016" pkt_dts="93184" pkt_dts_time="2.113016" best_effort_timestamp="93184" best_effort_timestamp_time="2.113016" duration="1024" duration_time="0.023220" pkt_pos="2604731" pkt_size="574" sample_fmt="fltp" nb_samples="1024" channels="2" channel_layout="stereo"/>
        <frame media_type="audio" stream_index="1" key_frame="1" pts="94208" pts_time="2.136236" pkt_dts="94208" pkt_dts_time="2.136236" best_effort_timestamp="94208" best_effort_timestamp_time="2.136236" duration="1024" duration_time="0.023220" pkt_pos="2659754" pkt_size="496" sample_fmt="fltp" nb_samples="1024" channels="2" channel_layout="stereo"/>
        <frame media_type="audio" stream_index="1" key_frame="1" pts="95232" pts_time="2.159456" pkt_dts="95232" pkt_dts_time="2.159456" best_effort_timestamp="95232" best_effort_timestamp_time="2.159456" duration="1024" duration_time="0.023220" pkt_pos="2660250" pkt_size="605" sample_fmt="fltp" nb_samples="1024" channels="2" channel_layout="stereo"/>
        <frame media_type="audio" stream_index="1" key_frame="1" pts="96256" pts_time="2.182676" pkt_dts="96256" pkt_dts_time="2.182676" best_effort_timestamp="96256" best_effort_timestamp_time="2.182676" duration="1024" duration_time="0.023220" pkt_pos="2680457" pkt_size="590" sample_fmt="fltp" nb_samples="1024" channels="2" channel_layout="stereo"/>
        <frame media_type="audio" stream_index="1" key_frame="1" pts="97280" pts_time="2.205896" pkt_dts="97280" pkt_dts_time="2.205896" best_effort_timestamp="97280" best_effort_timestamp_time="2.205896" duration="1024" duration_time="0.023220" pkt_pos="2735583" pkt_size="609" sample_fmt="fltp" nb_samples="1024" channels="2" channel_layout="stereo"/>
        <frame media_type="audio" stream_index="1" key_frame="1" pts="98304" pts_time="2.229116" pkt_dts="98304" pkt_dts_time="2.229116" best_effort_timestamp="98304" best_effort_timestamp_time="2.229116" duration="1024" duration_time="0.023220" pkt_pos="2736192" pkt_size="586" sample_fmt="fltp" nb_samples="1024" channels="2" channel_layout="stereo"/>
        <frame media_type="audio" stream_index="1" key_frame="1" pts="99328" pts_time="2.252336" pkt_dts="99328" pkt_dts_time="2.252336" best_effort_timestamp="99328" best_effort_timestamp_time="2.252336" duration="1024" duration_time="0.023220" pkt_pos="2757294" pkt_size="562" sample_fmt="fltp" nb_samples="1024" channels="2" channel_layout="stereo"/>
        <frame media_type="audio" stream_index="1" key_frame="1" pts="100352" pts_time="2.275556" pkt_dts="100352" pkt_dts_time="2.275556" best_effort_timestamp="100352" best_effort_timestamp_time="2.275556" duration="1024" duration_time="0.023220" pkt_pos="2810147" pkt_size="588" sample_fmt="fltp" nb_samples="1024" channels="2" channel_layout="stereo"/>
        <frame media_type="audio" stream_index="1" key_frame="1" pts="101376" pts_time="2.298776" pkt_dts="101376" pkt_dts_time="2.298776" best_effort_timestamp="101376" best_effort_timestamp_time="2.298776" duration="1024" duration_time="0.023220" pkt_pos="2810735" pkt_size="520" sample_fmt="fltp" nb_samples="1024" channels="2" channel_layout="stereo"/>
        <frame media_type="audio" stream_index="1" key_frame="1" pts="102400" pts_time="2.321995" pkt_dts="102400" pkt_dts_time="2.321995" best_effort_timestamp="102400" best_effort_timestamp_time="2.321995" duration="1024" duration_time="0.023220" pkt_pos="2828888" pkt_size="588" sample_fmt="fltp" nb_samples="1024" channels="2" channel_layout="stereo"/>
        <frame media_type="audio" stream_index="1" key_frame="1" pts="103424" pts_time="2.345215" pkt_dts="103424" pkt_dts_time="2.345215" best_effort_timestamp="103424" best_effort_timestamp_time="2.345215" duration="1024" duration_time="0.023220" pkt_pos="2885844" pkt_size="607" sample_fmt="fltp" nb_samples="1024" channels="2" channel_layout="stereo"/>
        <frame media_type="audio" stream_index="1" key_frame="1" pts="104448" pts_time="2.368435" pkt_dts="104448" pkt_dts_time="2.368435" best_effort_timestamp="104448" best_effort_timestamp_time="2.368435" duration="1024" duration_time="0.023220" pkt_pos="2903441" pkt_size="606" sample_fmt="fltp" nb_samples="1024" channels="2" channel_layout="stereo"/>
        <frame media_type="audio" stream_index="1" key_frame="1" pts="105472" pts_time="2.391655" pkt_dts="105472" pkt_dts_time="2.391655" best_effort_timestamp="105472" best_effort_timestamp_time="2.391655" duration="1024" duration_time="0.023220" pkt_pos="2904047" pkt_size="571" sample_fmt="fltp" nb_samples="1024" channels="2" channel_layout="stereo"/>
        <frame media_type="audio" stream_index="1" key_frame="1" pts="106496" pts_time="2.414875" pkt_dts="106496" pkt_dts_time="2.414875" best_effort_timestamp="106496" best_effort_timestamp_time="2.414875" duration="1024" duration_time="0.023220" pkt_pos="2962711" pkt_size="501" sample_fmt="fltp" nb_samples="1024" channels="2" channel_layout="stereo"/>
        <frame media_type="audio" stream_index="1" key_frame="1" pts="107520" pts_time="2.438095" pkt_dts="107520" pkt_dts_time="2.438095" best_effort_timestamp="107520" best_effort_timestamp_time="2.438095" duration="1024" duration_time="0.023220" pkt_pos="2980364" pkt_size="569" sample_fmt="fltp" nb_samples="1024" channels="2" channel_layout="stereo"/>
        <frame media_type="audio" stream_index="1" key_frame="1" pts="108544" pts_time="2.461315" pkt_dts="108544" pkt_dts_time="2.461315" best_effort_timestamp="108544" best_effort_timestamp_time="2.461315" duration="1024" duration_time="0.023220" pkt_pos="2980933" pkt_size="627" sample_fmt="fltp" nb_samples="1024" channels="2" channel_layout="stereo"/>
        <frame media_type="audio" stream_index="1" key_frame="1" pts="109568" pts_time="2.484535" pkt_dts="109568" pkt_dts_time="2.484535" best_effort_timestamp="109568" best_effort_timestamp_time="2.484535" duration="1024" duration_time="0.023220" pkt_pos="3040533" pkt_size="573" sample_fmt="fltp" nb_samples="1024" channels="2" channel_layout="stereo"/>
        <frame media_type="audio" stream_index="1" key_frame="1" pts="110592" pts_time="2.507755" pkt_dts="110592" pkt_dts_time="2.507755" best_effort_timestamp="110592" best_effort_timestamp_time="2.507755" duration="1024" duration_time="0.023220" pkt_pos="3060750" pkt_size="569" sample_fmt="fltp" nb_samples="1024" channels="2" channel_layout="stereo"/>
        <frame media_type="audio" stream_index="1" key_frame="1" pts="111616" pts_time="2.530975" pkt_dts="111616" pkt_dts_time="2.530975" best_effort_timestamp="111616" best_effort_timestamp_time="2.530975" duration="1024" duration_time="0.023220" pkt_pos="3061319" pkt_size="541" sample_fmt="fltp" nb_samples="1024" channels="2" channel_layout="stereo"/>
        <frame media_type="audio" stream_index="1" key_frame="1" pts="112640" pts_time="2.554195" pkt_dts="112640" pkt_dts_time="2.554195" best_effort_timestamp="112640" best_effort_timestamp_time="2.554195" duration="1024" duration_time="0.023220" pkt_pos="3134644" pkt_size="543" sample_fmt="fltp" nb_samples="1024" channels="2" channel_layout="stereo"/>
        <frame media_type="audio" stream_index="1" key_frame="1" pts="113664" pts_time="2.577415" pkt_dts="113664" pkt_dts_time="2.577415" best_effort_timestamp="113664" best_effort_timestamp_time="2.577415" duration="1024" duration_time="0.023220" pkt_pos="3156237" pkt_size="528" sample_fmt="fltp" nb_samples="1024" channels="2" channel_layout="stereo"/>
        <frame media_type="audio" stream_index="1" key_frame="1" pts="114688" pts_time="2.600635" pkt_dts="114688" pkt_dts_time="2.600635" best_effort_timestamp="114688" best_effort_timestamp_time="2.600635" duration="1024" duration_time="0.023220" pkt_pos="3216417" pkt_size="565" sample_fmt="fltp" nb_samples="1024" channels="2" channel_layout="stereo"/>
        <frame media_type="audio" stream_index="1" key_frame="1" pts="115712" pts_time="2.623855" pkt_dts="115712" pkt_dts_time="2.623855" best_effort_timestamp="115712" best_effort_timestamp_time="2.623855" duration="1024" duration_time="0.023220" pkt_pos="3216982" pkt_size="570" sample_fmt="fltp" nb_samples="1024" channels="2" channel_layout="stereo"/>
        <frame media_type="audio" stream_index="1" key_frame="1" pts="116736" pts_time="2.647075" pkt_dts="116736" pkt_dts_time="2.647075" best_effort_timestamp="116736" best_effort_timestamp_time="2.647075" duration="1024" duration_time="0.023220" pkt_pos="3233357" pkt_size="541" sample_fmt="fltp" nb_samples="1024" channels="2" channel_layout="stereo"/>
        <frame media_type="audio" stream_index="1" key_frame="1" pts="117760" pts_time="2.670295" pkt_dts="117760" pkt_dts_time="2.670295" best_effort_timestamp="117760" best_effort_timestamp_time="2.670295" duration="1024" duration_time="0.023220" pkt_pos="3299783" pkt_size="509" sample_fmt="fltp" nb_samples="1024" channels="2" channel_layout="stereo"/>
        <frame media_type="audio" stream_index="1" key_frame="1" pts="118784" pts_time="2.693515" pkt_dts="118784" pkt_dts_time="2.693515" best_effort_timestamp="118784" best_effort_timestamp_time="2.693515" duration="1024" duration_time="0.023220" pkt_pos="3300292" pkt_size="604" sample_fmt="fltp" nb_samples="1024" channels="2" channel_layout="stereo"/>
        <frame media_type="audio" stream_index="1" key_frame="1" pts="119808" pts_time="2.716735" pkt_dts="119808" pkt_dts_time="2.716735" best_effort_timestamp="119808" best_effort_timestamp_time="2.716735" duration="1024" duration_time="0.023220" pkt_pos="3321155" pkt_size="589" sample_fmt="fltp" nb_samples="1024" channels="2" channel_layout="stereo"/>
        <frame media_type="audio" stream_index="1" key_frame="1" pts="120832" pts_time="2.739955" pkt_dts="120832" pkt_dts_time="2.739955" best_effort_timestamp="120832" best_effort_timestamp_time="2.739955" duration="1024" duration_time="0.023220" pkt_pos="3392748" pkt_size="594" sample_fmt="fltp" nb_samples="1024" channels="2" channel_layout="stereo"/>
        <frame media_type="audio" stream_index="1" key_frame="1" pts="121856" pts_time="2.763175" pkt_dts="121856" pkt_dts_time="2.763175" best_effort_timestamp="121856" best_effort_timestamp_time="2.763175" duration="1024" duration_time="0.023220" pkt_pos="3393342" pkt_size="537" sample_fmt="fltp" nb_samples="1024" channels="2" channel_layout="stereo"/>
        <frame media_type="audio" stream_index="1" key_frame="1" pts="122880" pts_time="2.786395" pkt_dts="122880" pkt_dts_time="2.786395" best_effort_timestamp="122880" best_effort_timestamp_time="2.786395" duration="1024" duration_time="0.023220" pkt_pos="3415909" pkt_size="601" sample_fmt="fltp" nb_samples="1024" channels="2" channel_layout="stereo"/>
        <frame media_type="audio" stream_index="1" key_frame="1" pts="123904" pts_time="2.809615" pkt_dts="123904" pkt_dts_time="2.809615" best_effort_timestamp="123904" best_effort_timestamp_time="2.809615" duration="1024" duration_time="0.023220" pkt_pos="3483230" pkt_size="596" sample_fmt="fltp" nb_samples="1024" channels="2" channel_layout="stereo"/>
        <frame media_type="audio" stream_index="1" key_frame="1" pts="124928" pts_time="2.832834" pkt_dts="124928" pkt_dts_time="2.832834" best_effort_timestamp="124928" best_effort_timestamp_time="2.832834" duration="1024" duration_time="0.023220" pkt_pos="3483826" pkt_size="492" sample_fmt="fltp" nb_samples="1024" channels="2" channel_layout="stereo"/>
        <frame media_type="audio" stream_index="1" key_frame="1" pts="125952" pts_time="2.856054" pkt_dts="125952" pkt_dts_time="2.856054" best_effort_timestamp="125952" best_effort_timestamp_time="2.856054" duration="1024" duration_time="0.023220" pkt_pos="3503773" pkt_size="559" sample_fmt="fltp" nb_samples="1024" channels="2" channel_layout="stereo"/>
        <frame media_type="audio" stream_index="1" key_frame="1" pts="126976" pts_time="2.879274" pkt_dts="126976" pkt_dts_time="2.879274" best_effort_timestamp="126976" best_effort_timestamp_time="2.879274" duration="1024" duration_time="0.023220" pkt_pos="3572789" pkt_size="588" sample_fmt="fltp" nb_samples="1024" channels="2" channel_layout="stereo"/>
        <frame media_type="audio" stream_index="1" key_frame="1" pts="128000" pts_time="2.902494" pkt_dts="128000" pkt_dts_time="2.902494" best_effort_timestamp="128000" best_effort_timestamp_time="2.902494" duration="1024" duration_time="0.023220" pkt_pos="3591861" pkt_size="570" sample_fmt="fltp" nb_samples="1024" channels="2" channel_layout="stereo"/>
        <frame media_type="audio" stream_index="1" key_frame="1" pts="129024" pts_time="2.925714" pkt_dts="129024" pkt_dts_time="2.925714" best_effort_timestamp="129024" best_effort_timestamp_time="2.925714" duration="1024" duration_time="0.023220" pkt_pos="3592431" pkt_size="584" sample_fmt="fltp" nb_samples="1024" channels="2" channel_layout="stereo"/>
        <frame media_type="audio" stream_index="1" key_frame="1" pts="130048" pts_time="2.948934" pkt_dts="130048" pkt_dts_time="2.948934" best_effort_timestamp="130048" best_effort_timestamp_time="2.948934" duration="1024" duration_time="0.023220" pkt_pos="3658230" pkt_size="542" sample_fmt="fltp" nb_samples="1024" channels="2" channel_layout="stereo"/>
        <frame media_type="audio" stream_index="1" key_frame="1" pts="131072" pts_time="2.972154" pkt_dts="131072" pkt_dts_time="2.972154" best_effort_timestamp="131072" best_effort_timestamp_time="2.972154" duration="1024" duration_time="0.023220" pkt_pos="3676546" pkt_size="566" sample_fmt="fltp" nb_samples="1024" channels="2" channel_layout="stereo"/>
        <frame media_type="audio" stream_index="1" key_frame="1" pts="132096" pts_time="2.995374" pkt_dts="132096" pkt_dts_time="2.995374" best_effort_timestamp="132096" best_effort_timestamp_time="2.995374" duration="1024" duration_time="0.023220" pkt_pos="3677112" pkt_size="558" sample_fmt="fltp" nb_samples="1024" channels="2" channel_layout="stereo"/>
        <frame media_type="audio" stream_index="1" key_frame="1" pts="133120" pts_time="3.018594" pkt_dts="133120" pkt_dts_time="3.018594" best_effort_timestamp="133120" best_effort_timestamp_time="3.018594" duration="1024" duration_time="0.023220" pkt_pos="3794642" pkt_size="562" sample_fmt="fltp" nb_samples="1024" channels="2" channel_layout="stereo"/>
        <frame media_type="audio" stream_index="1" key_frame="1" pts="134144" pts_time="3.041814" pkt_dts="134144" pkt_dts_time="3.041814" best_effort_timestamp="134144" best_effort_timestamp_time="3.041814" duration="1024" duration_time="0.023220" pkt_pos="3821106" pkt_size="552" sample_fmt="fltp" nb_samples="1024" channels="2" channel_layout="stereo"/>
        <frame media_type="audio" stream_index="1" key_frame="1" pts="135168" pts_time="3.065034" pkt_dts="135168" pkt_dts_time="3.065034" best_effort_timestamp="135168" best_effort_timestamp_time="3.065034" duration="1024" duration_time="0.023220" pkt_pos="3821658" pkt_size="539" sample_fmt="fltp" nb_samples="1024" channels="2" channel_layout="stereo"/>
        <frame media_type="audio" stream_index="1" key_frame="1" pts="136192" pts_time="3.088254" pkt_dts="136192" pkt_dts_time="3.088254" best_effort_timestamp="136192" best_effort_timestamp_time="3.088254" duration="1024" duration_time="0.023220" pkt_pos="3882220" pkt_size="500" sample_fmt="fltp" nb_samples="1024" channels="2" channel_layout="stereo"/>
        <frame media_type="audio" stream_index="1" key_frame="1" pts="137216" pts_time="3.111474" pkt_dts="137216" pkt_dts_time="3.111474" best_effort_timestamp="137216" best_effort_timestamp_time="3.111474" duration="1024" duration_time="0.023220" pkt_pos="3898604" pkt_size="580" sample_fmt="fltp" nb_samples="1024" channels="2" channel_layout="stereo"/>
        <frame media_type="audio" stream_index="1" key_frame="1" pts="138240" pts_time="3.134694" pkt_dts="138240" pkt_dts_time="3.134694" best_effort_timestamp="138240" best_effort_timestamp_time="3.134694" duration="1024" duration_time="0.023220" pkt_pos="3954638" pkt_size="557" sample_fmt="fltp" nb_samples="1024" channels="2" channel_layout="stereo"/>
        <frame media_type="audio" stream_index="1" key_frame="1" pts="139264" pts_time="3.157914" pkt_dts="139264" pkt_dts_time="3.157914" best_effort_timestamp="139264" best_effort_timestamp_time="3.157914" duration="1024" duration_time="0.023220" pkt_pos="3955195" pkt_size="565" sample_fmt="fltp" nb_samples="1024" channels="2" channel_layout="stereo"/>
        <frame media_type="audio" stream_index="1" key_frame="1" pts="140288" pts_time="3.181134" pkt_dts="140288" pkt_dts_time="3.181134" best_effort_timestamp="140288" best_effort_timestamp_time="3.181134" duration="1024" duration_time="0.023220" pkt_pos="3971480" pkt_size="494" sample_fmt="fltp" nb_samples="1024" channels="2" channel_layout="stereo"/>
        <frame media_type="audio" stream_index="1" key_frame="1" pts="141312" pts_time="3.204354" pkt_dts="141312" pkt_dts_time="3.204354" best_effort_timestamp="141312" best_effort_timestamp_time="3.204354" duration="1024" duration_time="0.023220" pkt_pos="4028478" pkt_size="588" sample_fmt="fltp" nb_samples="1024" channels="2" channel_layout="stereo"/>
        <frame media_type="audio" stream_index="1" key_frame="1" pts="142336" pts_time="3.227574" pkt_dts="142336" pkt_dts_time="3.227574" best_effort_timestamp="142336" best_effort_timestamp_time="3.227574" duration="1024" duration_time="0.023220" pkt_pos="4029066" pkt_size="557" sample_fmt="fltp" nb_samples="1024" channels="2" channel_layout="stereo"/>
        <frame media_type="audio" stream_index="1" key_frame="1" pts="143360" pts_time="3.250794" pkt_dts="143360" pkt_dts_time="3.250794" best_effort_timestamp="143360" best_effort_timestamp_time="3.250794" duration="1024" duration_time="0.023220" pkt_pos="4045793" pkt_size="584" sample_fmt="fltp" nb_samples="1024" channels="2" channel_layout="stereo"/>
        <frame media_type="audio" stream_index="1" key_frame="1" pts="144384" pts_time="3.274014" pkt_dts="144384" pkt_dts_time="3.274014" best_effort_timestamp="144384" best_effort_timestamp_time="3.274014" duration="1024" duration_time="0.023220" pkt_pos="4104265" pkt_size="536" sample_fmt="fltp" nb_samples="1024" channels="2" channel_layout="stereo"/>
        <frame media_type="audio" stream_index="1" key_frame="1" pts="145408" pts_time="3.297234" pkt_dts="145408" pkt_dts_time="3.297234" best_effort_timestamp="145408" best_effort_timestamp_time="3.297234" duration="1024" duration_time="0.023220" pkt_pos="4104801" pkt_size="502" sample_fmt="fltp" nb_samples="1024" channels="2" channel_layout="stereo"/>
        <frame media_type="audio" stream_index="1" key_frame="1" pts="146432" pts_time="3.320454" pkt_dts="146432" pkt_dts_time="3.320454" best_effort_timestamp="146432" best_effort_timestamp_time="3.320454" duration="1024" duration_time="0.023220" pkt_pos="4121485" pkt_size="500" sample_fmt="fltp" nb_samples="1024" channels="2" channel_layout="stereo"/>
        <frame media_type="audio" stream_index="1" key_frame="1" pts="147456" pts_time="3.343673" pkt_dts="147456" pkt_dts_time="3.343673" best_effort_timestamp="147456" best_effort_timestamp_time="3.343673" duration="1024" duration_time="0.023220" pkt_pos="4178772" pkt_size="476" sample_fmt="fltp" nb_samples="1024" channels="2" channel_layout="stereo"/>
        <frame media_type="audio" stream_index="1" key_frame="1" pts="148480" pts_time="3.366893" pkt_dts="148480" pkt_dts_time="3.366893" best_effort_timestamp="148480" best_effort_timestamp_time="3.366893" duration="1024" duration_time="0.023220" pkt_pos="4195403" pkt_size="478" sample_fmt="fltp" nb_samples="1024" channels="2" channel_layout="stereo"/>
        <frame media_type="audio" stream_index="1" key_frame="1" pts="149504" pts_time="3.390113" pkt_dts="149504" pkt_dts_time="3.390113" best_effort_timestamp="149504" best_effort_timestamp_time="3.390113" duration="1024" duration_time="0.023220" pkt_pos="4195881" pkt_size="612" sample_fmt="fltp" nb_samples="1024" channels="2" channel_layout="stereo"/>
        <frame media_type="audio" stream_index="1" key_frame="1" pts="150528" pts_time="3.413333" pkt_dts="150528" pkt_dts_time="3.413333" best_effort_timestamp="150528" best_effort_timestamp_time="3.413333" duration="1024" duration_time="0.023220" pkt_pos="4252817" pkt_size="513" sample_fmt="fltp" nb_samples="1024" channels="2" channel_layout="stereo"/>
        <frame media_type="audio" stream_index="1" key_frame="1" pts="151552" pts_time="3.436553" pkt_dts="151552" pkt_dts_time="3.436553" best_effort_timestamp="151552" best_effort_timestamp_time="3.436553" duration="1024" duration_time="0.023220" pkt_pos="4269350" pkt_size="529" sample_fmt="fltp" nb_samples="1024" channels="2" channel_layout="stereo"/>
        <frame media_type="audio" stream_index="1" key_frame="1" pts="152576" pts_time="3.459773" pkt_dts="152576" pkt_dts_time="3.459773" best_effort_timestamp="152576" best_effort_timestamp_time="3.459773" duration="1024" duration_time="0.023220" pkt_pos="4269879" pkt_size="570" sample_fmt="fltp" nb_samples="1024" channels="2" channel_layout="stereo"/>
        <frame media_type="audio" stream_index="1" key_frame="1" pts="153600" pts_time="3.482993" pkt_dts="153600" pkt_dts_time="3.482993" best_effort_timestamp="153600" best_effort_timestamp_time="3.482993" duration="1024" duration_time="0.023220" pkt_pos="4328950" pkt_size="538" sample_fmt="fltp" nb_samples="1024" channels="2" channel_layout="stereo"/>
        <frame media_type="audio" stream_index="1" key_frame="1" pts="154624" pts_time="3.506213" pkt_dts="154624" pkt_dts_time="3.506213" best_effort_timestamp="154624" best_effort_timestamp_time="3.506213" duration="1024" duration_time="0.023220" pkt_pos="4346275" pkt_size="526" sample_fmt="fltp" nb_samples="1024" channels="2" channel_layout="stereo"/>
        <frame media_type="audio" stream_index="1" key_frame="1" pts="155648" pts_time="3.529433" pkt_dts="155648" pkt_dts_time="3.529433" best_effort_timestamp="155648" best_effort_timestamp_time="3.529433" duration="1024" duration_time="0.023220" pkt_pos="4346801" pkt_size="536" sample_fmt="fltp" nb_samples="1024" channels="2" channel_layout="stereo"/>
        <frame media_type="audio" stream_index="1" key_frame="1" pts="156672" pts_time="3.552653" pkt_dts="156672" pkt_dts_time="3.552653" best_effort_timestamp="156672" best_effort_timestamp_time="3.552653" duration="1024" duration_time="0.023220" pkt_pos="4407190" pkt_size="616" sample_fmt="fltp" nb_samples="1024" channels="2" channel_layout="stereo"/>
        <frame media_type="audio" stream_index="1" key_frame="1" pts="157696" pts_time="3.575873" pkt_dts="157696" pkt_dts_time="3.575873" best_effort_timestamp="157696" best_effort_timestamp_time="3.575873" duration="1024" duration_time="0.023220" pkt_pos="4425215" pkt_size="550" sample_fmt="fltp" nb_samples="1024" channels="2" channel_layout="stereo"/>
        <frame media_type="audio" stream_index="1" key_frame="1" pts="158720" pts_time="3.599093" pkt_dts="158720" pkt_dts_time="3.599093" best_effort_timestamp="158720" best_effort_timestamp_time="3.599093" duration="1024" duration_time="0.023220" pkt_pos="4425765" pkt_size="528" sample_fmt="fltp" nb_samples="1024" channels="2" channel_layout="stereo"/>
        <frame media_type="audio" stream_index="1" key_frame="1" pts="159744" pts_time="3.622313" pkt_dts="159744" pkt_dts_time="3.622313" best_effort_timestamp="159744" best_effort_timestamp_time="3.622313" duration="1024" duration_time="0.023220" pkt_pos="4485878" pkt_size="507" sample_fmt="fltp" nb_samples="1024" channels="2" channel_layout="stereo"/>
        <frame media_type="audio" stream_index="1" key_frame="1" pts="160768" pts_time="3.645533" pkt_dts="160768" pkt_dts_time="3.645533" best_effort_timestamp="160768" best_effort_timestamp_time="3.645533" duration="1024" duration_time="0.023220" pkt_pos="4503823" pkt_size="713" sample_fmt="fltp" nb_samples="1024" channels="2" channel_layout="stereo"/>
        <frame media_type="audio" stream_index="1" key_frame="1" pts="161792" pts_time="3.668753" pkt_dts="161792" pkt_dts_time="3.668753" best_effort_timestamp="161792" best_effort_timestamp_time="3.668753" duration="1024" duration_time="0.023220" pkt_pos="4566565" pkt_size="580" sample_fmt="fltp" nb_samples="1024" channels="2" channel_layout="stereo"/>
        <frame media_type="audio" stream_index="1" key_frame="1" pts="162816" pts_time="3.691973" pkt_dts="162816" pkt_dts_time="3.691973" best_effort_timestamp="162816" best_effort_timestamp_time="3.691973" duration="1024" duration_time="0.023220" pkt_pos="4567145" pkt_size="474" sample_fmt="fltp" nb_samples="1024" channels="2" channel_layout="stereo"/>
        <frame media_type="audio" stream_index="1" key_frame="1" pts="163840" pts_time="3.715193" pkt_dts="163840" pkt_dts_time="3.715193" best_effort_timestamp="163840" best_effort_timestamp_time="3.715193" duration="1024" duration_time="0.023220" pkt_pos="4585490" pkt_size="523" sample_fmt="fltp" nb_samples="1024" channels="2" channel_layout="stereo"/>
        <frame media_type="audio" stream_index="1" key_frame="1" pts="164864" pts_time="3.738413" pkt_dts="164864" pkt_dts_time="3.738413" best_effort_timestamp="164864" best_effort_timestamp_time="3.738413" duration="1024" duration_time="0.023220" pkt_pos="4652757" pkt_size="609" sample_fmt="fltp" nb_samples="1024" channels="2" channel_layout="stereo"/>
        <frame media_type="audio" stream_index="1" key_frame="1" pts="165888" pts_time="3.761633" pkt_dts="165888" pkt_dts_time="3.761633" best_effort_timestamp="165888" best_effort_timestamp_time="3.761633" duration="1024" duration_time="0.023220" pkt_pos="4653366" pkt_size="562" sample_fmt="fltp" nb_samples="1024" channels="2" channel_layout="stereo"/>
        <frame media_type="audio" stream_index="1" key_frame="1" pts="166912" pts_time="3.784853" pkt_dts="166912" pkt_dts_time="3.784853" best_effort_timestamp="166912" best_effort_timestamp_time="3.784853" duration="1024" duration_time="0.023220" pkt_pos="4672860" pkt_size="485" sample_fmt="fltp" nb_samples="1024" channels="2" channel_layout="stereo"/>
        <frame media_type="audio" stream_index="1" key_frame="1" pts="167936" pts_time="3.808073" pkt_dts="167936" pkt_dts_time="3.808073" best_effort_timestamp="167936" best_effort_timestamp_time="3.808073" duration="1024" duration_time="0.023220" pkt_pos="4736218" pkt_size="579" sample_fmt="fltp" nb_samples="1024" channels="2" channel_layout="stereo"/>
        <frame media_type="audio" stream_index="1" key_frame="1" pts="168960" pts_time="3.831293" pkt_dts="168960" pkt_dts_time="3.831293" best_effort_timestamp="168960" best_effort_timestamp_time="3.831293" duration="1024" duration_time="0.023220" pkt_pos="4736797" pkt_size="543" sample_fmt="fltp" nb_samples="1024" channels="2" channel_layout="stereo"/>
        <frame media_type="audio" stream_index="1" key_frame="1" pts="169984" pts_time="3.854512" pkt_dts="169984" pkt_dts_time="3.854512" best_effort_timestamp="169984" best_effort_timestamp_time="3.854512" duration="1024" duration_time="0.023220" pkt_pos="4757085" pkt_size="579" sample_fmt="fltp" nb_samples="1024" channels="2" channel_layout="stereo"/>
        <frame media_type="audio" stream_index="1" key_frame="1" pts="171008" pts_time="3.877732" pkt_dts="171008" pkt_dts_time="3.877732" best_effort_timestamp="171008" best_effort_timestamp_time="3.877732" duration="1024" duration_time="0.023220" pkt_pos="4820335" pkt_size="556" sample_fmt="fltp" nb_samples="1024" channels="2" channel_layout="stereo"/>
        <frame media_type="audio" stream_index="1" key_frame="1" pts="172032" pts_time="3.900952" pkt_dts="172032" pkt_dts_time="3.900952" best_effort_timestamp="172032" best_effort_timestamp_time="3.900952" duration="1024" duration_time="0.023220" pkt_pos="4838038" pkt_size="513" sample_fmt="fltp" nb_samples="1024" channels="2" channel_layout="stereo"/>
        <frame media_type="audio" stream_index="1" key_frame="1" pts="173056" pts_time="3.924172" pkt_dts="173056" pkt_dts_time="3.924172" best_effort_timestamp="173056" best_effort_timestamp_time="3.924172" duration="1024" duration_time="0.023220" pkt_pos="4838551" pkt_size="715" sample_fmt="fltp" nb_samples="1024" channels="2" channel_layout="stereo"/>
        <frame media_type="audio" stream_index="1" key_frame="1" pts="174080" pts_time="3.947392" pkt_dts="174080" pkt_dts_time="3.947392" best_effort_timestamp="174080" best_effort_timestamp_time="3.947392" duration="1024" duration_time="0.023220" pkt_pos="4902831" pkt_size="550" sample_fmt="fltp" nb_samples="1024" channels="2" channel_layout="stereo"/>
        <frame media_type="audio" stream_index="1" key_frame="1" pts="175104" pts_time="3.970612" pkt_dts="175104" pkt_dts_time="3.970612" best_effort_timestamp="175104" best_effort_timestamp_time="3.970612" duration="1024" duration_time="0.023220" pkt_pos="4923159" pkt_size="548" sample_fmt="fltp" nb_samples="1024" channels="2" channel_layout="stereo"/>
        <frame media_type="audio" stream_index="1" key_frame="1" pts="176128" pts_time="3.993832" pkt_dts="176128" pkt_dts_time="3.993832" best_effort_timestamp="176128" best_effort_timestamp_time="3.993832" duration="1024" duration_time="0.023220" pkt_pos="4923707" pkt_size="523" sample_fmt="fltp" nb_samples="1024" channels="2" channel_layout="stereo"/>
        <frame media_type="audio" stream_index="1" key_frame="1" pts="177152" pts_time="4.017052" pkt_dts="177152" pkt_dts_time="4.017052" best_effort_timestamp="177152" best_effort_timestamp_time="4.017052" duration="1024" duration_time="0.023220" pkt_pos="5019372" pkt_size="582" sample_fmt="fltp" nb_samples="1024" channels="2" channel_layout="stereo"/>
        <frame media_type="audio" stream_index="1" key_frame="1" pts="178176" pts_time="4.040272" pkt_dts="178176" pkt_dts_time="4.040272" best_effort_timestamp="178176" best_effort_timestamp_time="4.040272" duration="1024" duration_time="0.023220" pkt_pos="5044445" pkt_size="536" sample_fmt="fltp" nb_samples="1024" channels="2" channel_layout="stereo"/>
        <frame media_type="audio" stream_index="1" key_frame="1" pts="179200" pts_time="4.063492" pkt_dts="179200" pkt_dts_time="4.063492" best_effort_timestamp="179200" best_effort_timestamp_time="4.063492" duration="1024" duration_time="0.023220" pkt_pos="5044981" pkt_size="546" sample_fmt="fltp" nb_samples="1024" channels="2" channel_layout="stereo"/>
        <frame media_type="audio" stream_index="1" key_frame="1" pts="180224" pts_time="4.086712" pkt_dts="180224" pkt_dts_time="4.086712" best_effort_timestamp="180224" best_effort_timestamp_time="4.086712" duration="1024" duration_time="0.023220" pkt_pos="5101037" pkt_size="542" sample_fmt="fltp" nb_samples="1024" channels="2" channel_layout="stereo"/>
        <frame media_type="audio" stream_index="1" key_frame="1" pts="181248" pts_time="4.109932" pkt_dts="181248" pkt_dts_time="4.109932" best_effort_timestamp="181248" best_effort_timestamp_time="4.109932" duration="1024" duration_time="0.023220" pkt_pos="5119096" pkt_size="507" sample_fmt="fltp" nb_samples="1024" channels="2" channel_layout="stereo"/>
        <frame media_type="audio" stream_index="1" key_frame="1" pts="182272" pts_time="4.133152" pkt_dts="182272" pkt_dts_time="4.133152" best_effort_timestamp="182272" best_effort_timestamp_time="4.133152" duration="1024" duration_time="0.023220" pkt_pos="5119603" pkt_size="579" sample_fmt="fltp" nb_samples="1024" channels="2" channel_layout="stereo"/>
        <frame media_type="audio" stream_index="1" key_frame="1" pts="183296" pts_time="4.156372" pkt_dts="183296" pkt_dts_time="4.156372" best_effort_timestamp="183296" best_effort_timestamp_time="4.156372" duration="1024" duration_time="0.023220" pkt_pos="5176376" pkt_size="540" sample_fmt="fltp" nb_samples="1024" channels="2" channel_layout="stereo"/>
        <frame media_type="audio" stream_index="1" key_frame="1" pts="184320" pts_time="4.179592" pkt_dts="184320" pkt_dts_time="4.179592" best_effort_timestamp="184320" best_effort_timestamp_time="4.179592" duration="1024" duration_time="0.023220" pkt_pos="5194371" pkt_size="551" sample_fmt="fltp" nb_samples="1024" channels="2" channel_layout="stereo"/>
        <frame media_type="audio" stream_index="1" key_frame="1" pts="185344" pts_time="4.202812" pkt_dts="185344" pkt_dts_time="4.202812" best_effort_timestamp="185344" best_effort_timestamp_time="4.202812" duration="1024" duration_time="0.023220" pkt_pos="5249438" pkt_size="600" sample_fmt="fltp" nb_samples="1024" channels="2" channel_layout="stereo"/>
        <frame media_type="audio" stream_index="1" key_frame="1" pts="186368" pts_time="4.226032" pkt_dts="186368" pkt_dts_time="4.226032" best_effort_timestamp="186368" best_effort_timestamp_time="4.226032" duration="1024" duration_time="0.023220" pkt_pos="5250038" pkt_size="553" sample_fmt="fltp" nb_samples="1024" channels="2" channel_layout="stereo"/>
        <frame media_type="audio" stream_index="1" key_frame="1" pts="187392" pts_time="4.249252" pkt_dts="187392" pkt_dts_time="4.249252" best_effort_timestamp="187392" best_effort_timestamp_time="4.249252" duration="1024" duration_time="0.023220" pkt_pos="5267105" pkt_size="546" sample_fmt="fltp" nb_samples="1024" channels="2" channel_layout="stereo"/>
        <frame media_type="audio" stream_index="1" key_frame="1" pts="188416" pts_time="4.272472" pkt_dts="188416" pkt_dts_time="4.272472" best_effort_timestamp="188416" best_effort_timestamp_time="4.272472" duration="1024" duration_time="0.023220" pkt_pos="5309409" pkt_size="523" sample_fmt="fltp" nb_samples="1024" channels="2" channel_layout="stereo"/>
        <frame media_type="audio" stream_index="1" key_frame="1" pts="189440" pts_time="4.295692" pkt_dts="189440" pkt_dts_time="4.295692" best_effort_timestamp="189440" best_effort_timestamp_time="4.295692" duration="1024" duration_time="0.023220" pkt_pos="5309932" pkt_size="570" sample_fmt="fltp" nb_samples="1024" channels="2" channel_layout="stereo"/>
        <frame media_type="audio" stream_index="1" key_frame="1" pts="190464" pts_time="4.318912" pkt_dts="190464" pkt_dts_time="4.318912" best_effort_timestamp="190464" best_effort_timestamp_time="4.318912" duration="1024" duration_time="0.023220" pkt_pos="5313963" pkt_size="550" sample_fmt="fltp" nb_samples="1024" channels="2" channel_layout="stereo"/>
        <frame media_type="audio" stream_index="1" key_frame="1" pts="191488" pts_time="4.342132" pkt_dts="191488" pkt_dts_time="4.342132" best_effort_timestamp="191488" best_effort_timestamp_time="4.342132" duration="1024" duration_time="0.023220" pkt_pos="5373667" pkt_size="575" sample_fmt="fltp" nb_samples="1024" channels="2" channel_layout="stereo"/>
        <frame media_type="audio" stream_index="1" key_frame="1" pts="192512" pts_time="4.365351" pkt_dts="192512" pkt_dts_time="4.365351" best_effort_timestamp="192512" best_effort_timestamp_time="4.365351" duration="1024" duration_time="0.023220" pkt_pos="5374242" pkt_size="534" sample_fmt="fltp" nb_samples="1024" channels="2" channel_layout="stereo"/>
        <frame media_type="audio" stream_index="1" key_frame="1" pts="193536" pts_time="4.388571" pkt_dts="193536" pkt_dts_time="4.388571" best_effort_timestamp="193536" best_effort_timestamp_time="4.388571" duration="1024" duration_time="0.023220" pkt_pos="5391463" pkt_size="577" sample_fmt="fltp" nb_samples="1024" channels="2" channel_layout="stereo"/>
        <frame media_type="audio" stream_index="1" key_frame="1" pts="194560" pts_time="4.411791" pkt_dts="194560" pkt_dts_time="4.411791" best_effort_timestamp="194560" best_effort_timestamp_time="4.411791" duration="1024" duration_time="0.023220" pkt_pos="5450448" pkt_size="561" sample_fmt="fltp" nb_samples="1024" channels="2" channel_layout="stereo"/>
        <frame media_type="audio" stream_index="1" key_frame="1" pts="195584" pts_time="4.435011" pkt_dts="195584" pkt_dts_time="4.435011" best_effort_timestamp="195584" best_effort_timestamp_time="4.435011" duration="1024" duration_time="0.023220" pkt_pos="5468751" pkt_size="574" sample_fmt="fltp" nb_samples="1024" channels="2" channel_layout="stereo"/>
        <frame media_type="audio" stream_index="1" key_frame="1" pts="196608" pts_time="4.458231" pkt_dts="196608" pkt_dts_time="4.458231" best_effort_timestamp="196608" best_effort_timestamp_time="4.458231" duration="1024" duration_time="0.023220" pkt_pos="5469325" pkt_size="517" sample_fmt="fltp" nb_samples="1024" channels="2" channel_layout="stereo"/>
        <frame media_type="audio" stream_index="1" key_frame="1" pts="197632" pts_time="4.481451" pkt_dts="197632" pkt_dts_time="4.481451" best_effort_timestamp="197632" best_effort_timestamp_time="4.481451" duration="1024" duration_time="0.023220" pkt_pos="5528307" pkt_size="677" sample_fmt="fltp" nb_samples="1024" channels="2" channel_layout="stereo"/>
        <frame media_type="audio" stream_index="1" key_frame="1" pts="198656" pts_time="4.504671" pkt_dts="198656" pkt_dts_time="4.504671" best_effort_timestamp="198656" best_effort_timestamp_time="4.504671" duration="1024" duration_time="0.023220" pkt_pos="5545193" pkt_size="673" sample_fmt="fltp" nb_samples="1024" channels="2" channel_layout="stereo"/>
        <frame media_type="audio" stream_index="1" key_frame="1" pts="199680" pts_time="4.527891" pkt_dts="199680" pkt_dts_time="4.527891" best_effort_timestamp="199680" best_effort_timestamp_time="4.527891" duration="1024" duration_time="0.023220" pkt_pos="5545866" pkt_size="484" sample_fmt="fltp" nb_samples="1024" channels="2" channel_layout="stereo"/>
        <frame media_type="audio" stream_index="1" key_frame="1" pts="200704" pts_time="4.551111" pkt_dts="200704" pkt_dts_time="4.551111" best_effort_timestamp="200704" best_effort_timestamp_time="4.551111" duration="1024" duration_time="0.023220" pkt_pos="5600757" pkt_size="624" sample_fmt="fltp" nb_samples="1024" channels="2" channel_layout="stereo"/>
        <frame media_type="audio" stream_index="1" key_frame="1" pts="201728" pts_time="4.574331" pkt_dts="201728" pkt_dts_time="4.574331" best_effort_timestamp="201728" best_effort_timestamp_time="4.574331" duration="1024" duration_time="0.023220" pkt_pos="5616986" pkt_size="470" sample_fmt="fltp" nb_samples="1024" channels="2" channel_layout="stereo"/>
        <frame media_type="audio" stream_index="1" key_frame="1" pts="202752" pts_time="4.597551" pkt_dts="202752" pkt_dts_time="4.597551" best_effort_timestamp="202752" best_effort_timestamp_time="4.597551" duration="1024" duration_time="0.023220" pkt_pos="5617456" pkt_size="575" sample_fmt="fltp" nb_samples="1024" channels="2" channel_layout="stereo"/>
        <frame media_type="audio" stream_index="1" key_frame="1" pts="203776" pts_time="4.620771" pkt_dts="203776" pkt_dts_time="4.620771" best_effort_timestamp="203776" best_effort_timestamp_time="4.620771" duration="1024" duration_time="0.023220" pkt_pos="5674174" pkt_size="509" sample_fmt="fltp" nb_samples="1024" channels="2" channel_layout="stereo"/>
        <frame media_type="audio" stream_index="1" key_frame="1" pts="204800" pts_time="4.643991" pkt_dts="204800" pkt_dts_time="4.643991" best_effort_timestamp="204800" best_effort_timestamp_time="4.643991" duration="1024" duration_time="0.023220" pkt_pos="5690474" pkt_size="481" sample_fmt="fltp" nb_samples="1024" channels="2" channel_layout="stereo"/>
        <frame media_type="audio" stream_index="1" key_frame="1" pts="205824" pts_time="4.667211" pkt_dts="205824" pkt_dts_time="4.667211" best_effort_timestamp="205824" best_effort_timestamp_time="4.667211" duration="1024" duration_time="0.023220" pkt_pos="5744933" pkt_size="481" sample_fmt="fltp" nb_samples="1024" channels="2" channel_layout="stereo"/>
        <frame media_type="audio" stream_index="1" key_frame="1" pts="206848" pts_time="4.690431" pkt_dts="206848" pkt_dts_time="4.690431" best_effort_timestamp="206848" best_effort_timestamp_time="4.690431" duration="1024" duration_time="0.023220" pkt_pos="5745414" pkt_size="523" sample_fmt="fltp" nb_samples="1024" channels="2" channel_layout="stereo"/>
        <frame media_type="audio" stream_index="1" key_frame="1" pts="207872" pts_time="4.713651" pkt_dts="207872" pkt_dts_time="4.713651" best_effort_timestamp="207872" best_effort_timestamp_time="4.713651" duration="1024" duration_time="0.023220" pkt_pos="5762258" pkt_size="572" sample_fmt="fltp" nb_samples="1024" channels="2" channel_layout="stereo"/>
        <frame media_type="audio" stream_index="1" key_frame="1" pts="208896" pts_time="4.736871" pkt_dts="208896" pkt_dts_time="4.736871" best_effort_timestamp="208896" best_effort_timestamp_time="4.736871" duration="1024" duration_time="0.023220" pkt_pos="5818853" pkt_size="552" sample_fmt="fltp" nb_samples="1024" channels="2" channel_layout="stereo"/>
        <frame media_type="audio" stream_index="1" key_frame="1" pts="209920" pts_time="4.760091" pkt_dts="209920" pkt_dts_time="4.760091" best_effort_timestamp="209920" best_effort_timestamp_time="4.760091" duration="1024" duration_time="0.023220" pkt_pos="5819405" pkt_size="599" sample_fmt="fltp" nb_samples="1024" channels="2" channel_layout="stereo"/>
        <frame media_type="audio" stream_index="1" key_frame="1" pts="210944" pts_time="4.783311" pkt_dts="210944" pkt_dts_time="4.783311" best_effort_timestamp="210944" best_effort_timestamp_time="4.783311" duration="1024" duration_time="0.023220" pkt_pos="5836592" pkt_size="560" sample_fmt="fltp" nb_samples="1024" channels="2" channel_layout="stereo"/>
        <frame media_type="audio" stream_index="1" key_frame="1" pts="211968" pts_time="4.806531" pkt_dts="211968" pkt_dts_time="4.806531" best_effort_timestamp="211968" best_effort_timestamp_time="4.806531" duration="1024" duration_time="0.023220" pkt_pos="5897068" pkt_size="553" sample_fmt="fltp" nb_samples="1024" channels="2" channel_layout="stereo"/>
        <frame media_type="audio" stream_index="1" key_frame="1" pts="212992" pts_time="4.829751" pkt_dts="212992" pkt_dts_time="4.829751" best_effort_timestamp="212992" best_effort_timestamp_time="4.829751" duration="1024" duration_time="0.023220" pkt_pos="5897621" pkt_size="585" sample_fmt="fltp" nb_samples="1024" channels="2" channel_layout="stereo"/>
        <frame media_type="audio" stream_index="1" key_frame="1" pts="214016" pts_time="4.852971" pkt_dts="214016" pkt_dts_time="4.852971" best_effort_timestamp="214016" best_effort_timestamp_time="4.852971" duration="1024" duration_time="0.023220" pkt_pos="5917011" pkt_size="596" sample_fmt="fltp" nb_samples="1024" channels="2" channel_layout="stereo"/>
        <frame media_type="audio" stream_index="1" key_frame="1" pts="215040" pts_time="4.876190" pkt_dts="215040" pkt_dts_time="4.876190" best_effort_timestamp="215040" best_effort_timestamp_time="4.876190" duration="1024" duration_time="0.023220" pkt_pos="5980654" pkt_size="608" sample_fmt="fltp" nb_samples="1024" channels="2" channel_layout="stereo"/>
        <frame media_type="audio" stream_index="1" key_frame="1" pts="216064" pts_time="4.899410" pkt_dts="216064" pkt_dts_time="4.899410" best_effort_timestamp="216064" best_effort_timestamp_time="4.899410" duration="1024" duration_time="0.023220" pkt_pos="5981262" pkt_size="594" sample_fmt="fltp" nb_samples="1024" channels="2" channel_layout="stereo"/>
        <frame media_type="audio" stream_index="1" key_frame="1" pts="217088" pts_time="4.922630" pkt_dts="217088" pkt_dts_time="4.922630" best_effort_timestamp="217088" best_effort_timestamp_time="4.922630" duration="1024" duration_time="0.023220" pkt_pos="6000863" pkt_size="614" sample_fmt="fltp" nb_samples="1024" channels="2" channel_layout="stereo"/>
        <frame media_type="audio" stream_index="1" key_frame="1" pts="218112" pts_time="4.945850" pkt_dts="218112" pkt_dts_time="4.945850" best_effort_timestamp="218112" best_effort_timestamp_time="4.945850" duration="1024" duration_time="0.023220" pkt_pos="6041195" pkt_size="589" sample_fmt="fltp" nb_samples="1024" channels="2" channel_layout="stereo"/>
        <frame media_type="audio" stream_index="1" key_frame="1" pts="219136" pts_time="4.969070" pkt_dts="219136" pkt_dts_time="4.969070" best_effort_timestamp="219136" best_effort_timestamp_time="4.969070" duration="1024" duration_time="0.023220" pkt_pos="6140478" pkt_size="526" sample_fmt="fltp" nb_samples="1024" channels="2" channel_layout="stereo"/>
        <frame media_type="audio" stream_index="1" key_frame="1" pts="220160" pts_time="4.992290" pkt_dts="220160" pkt_dts_time="4.992290" best_effort_timestamp="220160" best_effort_timestamp_time="4.992290" duration="1024" duration_time="0.023220" pkt_pos="6141004" pkt_size="570" sample_fmt="fltp" nb_samples="1024" channels="2" channel_layout="stereo"/>
        <frame media_type="audio" stream_index="1" key_frame="1" pts="221184" pts_time="5.015510" pkt_dts="221184" pkt_dts_time="5.015510" best_effort_timestamp="221184" best_effort_timestamp_time="5.015510" duration="1024" duration_time="0.023220" pkt_pos="6232257" pkt_size="532" sample_fmt="fltp" nb_samples="1024" channels="2" channel_layout="stereo"/>
        <frame media_type="audio" stream_index="1" key_frame="1" pts="222208" pts_time="5.038730" pkt_dts="222208" pkt_dts_time="5.038730" best_effort_timestamp="222208" best_effort_timestamp_time="5.038730" duration="1024" duration_time="0.023220" pkt_pos="6261355" pkt_size="559" sample_fmt="fltp" nb_samples="1024" channels="2" channel_layout="stereo"/>
        <frame media_type="audio" stream_index="1" key_frame="1" pts="223232" pts_time="5.061950" pkt_dts="223232" pkt_dts_time="5.061950" best_effort_timestamp="223232" best_effort_timestamp_time="5.061950" duration="1024" duration_time="0.023220" pkt_pos="6261914" pkt_size="599" sample_fmt="fltp" nb_samples="1024" channels="2" channel_layout="stereo"/>
        <frame media_type="audio" stream_index="1" key_frame="1" pts="224256" pts_time="5.085170" pkt_dts="224256" pkt_dts_time="5.085170" best_effort_timestamp="224256" best_effort_timestamp_time="5.085170" duration="1024" duration_time="0.023220" pkt_pos="6322059" pkt_size="587" sample_fmt="fltp" nb_samples="1024" channels="2" channel_layout="stereo"/>
        <frame media_type="audio" stream_index="1" key_frame="1" pts="225280" pts_time="5.108390" pkt_dts="225280" pkt_dts_time="5.108390" best_effort_timestamp="225280" best_effort_timestamp_time="5.108390" duration="1024" duration_time="0.023220" pkt_pos="6342084" pkt_size="537" sample_fmt="fltp" nb_samples="1024" channels="2" channel_layout="stereo"/>
        <frame media_type="audio" stream_index="1" key_frame="1" pts="226304" pts_time="5.131610" pkt_dts="226304" pkt_dts_time="5.131610" best_effort_timestamp="226304" best_effort_timestamp_time="5.131610" duration="1024" duration_time="0.023220" pkt_pos="6342621" pkt_size="506" sample_fmt="fltp" nb_samples="1024" channels="2" channel_layout="stereo"/>
        <frame media_type="audio" stream_index="1" key_frame="1" pts="227328" pts_time="5.154830" pkt_dts="227328" pkt_dts_time="5.154830" best_effort_timestamp="227328" best_effort_timestamp_time="5.154830" duration="1024" duration_time="0.023220" pkt_pos="6404438" pkt_size="536" sample_fmt="fltp" nb_samples="1024" channels="2" channel_layout="stereo"/>
        <frame media_type="audio" stream_index="1" key_frame="1" pts="228352" pts_time="5.178050" pkt_dts="228352" pkt_dts_time="5.178050" best_effort_timestamp="228352" best_effort_timestamp_time="5.178050" duration="1024" duration_time="0.023220" pkt_pos="6424281" pkt_size="533" sample_fmt="fltp" nb_samples="1024" channels="2" channel_layout="stereo"/>
        <frame media_type="audio" stream_index="1" key_frame="1" pts="229376" pts_time="5.201270" pkt_dts="229376" pkt_dts_time="5.201270" best_effort_timestamp="229376" best_effort_timestamp_time="5.201270" duration="1024" duration_time="0.023220" pkt_pos="6476188" pkt_size="523" sample_fmt="fltp" nb_samples="1024" channels="2" channel_layout="stereo"/>
        <frame media_type="audio" stream_index="1" key_frame="1" pts="230400" pts_time="5.224490" pkt_dts="230400" pkt_dts_time="5.224490" best_effort_timestamp="230400" best_effort_timestamp_time="5.224490" duration="1024" duration_time="0.023220" pkt_pos="6476711" pkt_size="531" sample_fmt="fltp" nb_samples="1024" channels="2" channel_layout="stereo"/>
        <frame media_type="audio" stream_index="1" key_frame="1" pts="231424" pts_time="5.247710" pkt_dts="231424" pkt_dts_time="5.247710" best_effort_timestamp="231424" best_effort_timestamp_time="5.247710" duration="1024" duration_time="0.023220" pkt_pos="6495995" pkt_size="564" sample_fmt="fltp" nb_samples="1024" channels="2" channel_layout="stereo"/>
        <frame media_type="audio" stream_index="1" key_frame="1" pts="232448" pts_time="5.270930" pkt_dts="232448" pkt_dts_time="5.270930" best_effort_timestamp="232448" best_effort_timestamp_time="5.270930" duration="1024" duration_time="0.023220" pkt_pos="6543568" pkt_size="568" sample_fmt="fltp" nb_samples="1024" channels="2" channel_layout="stereo"/>
        <frame media_type="audio" stream_index="1" key_frame="1" pts="233472" pts_time="5.294150" pkt_dts="233472" pkt_dts_time="5.294150" best_effort_timestamp="233472" best_effort_timestamp_time="5.294150" duration="1024" duration_time="0.023220" pkt_pos="6544136" pkt_size="550" sample_fmt="fltp" nb_samples="1024" channels="2" channel_layout="stereo"/>
        <frame media_type="audio" stream_index="1" key_frame="1" pts="234496" pts_time="5.317370" pkt_dts="234496" pkt_dts_time="5.317370" best_effort_timestamp="234496" best_effort_timestamp_time="5.317370" duration="1024" duration_time="0.023220" pkt_pos="6562459" pkt_size="487" sample_fmt="fltp" nb_samples="1024" channels="2" channel_layout="stereo"/>
        <frame media_type="audio" stream_index="1" key_frame="1" pts="235520" pts_time="5.340590" pkt_dts="235520" pkt_dts_time="5.340590" best_effort_timestamp="235520" best_effort_timestamp_time="5.340590" duration="1024" duration_time="0.023220" pkt_pos="6605016" pkt_size="521" sample_fmt="fltp" nb_samples="1024" channels="2" channel_layout="stereo"/>
        <frame media_type="audio" stream_index="1" key_frame="1" pts="236544" pts_time="5.363810" pkt_dts="236544" pkt_dts_time="5.363810" best_effort_timestamp="236544" best_effort_timestamp_time="5.363810" duration="1024" duration_time="0.023220" pkt_pos="6605537" pkt_size="600" sample_fmt="fltp" nb_samples="1024" channels="2" channel_layout="stereo"/>
        <frame media_type="audio" stream_index="1" key_frame="1" pts="237568" pts_time="5.387029" pkt_dts="237568" pkt_dts_time="5.387029" best_effort_timestamp="237568" best_effort_timestamp_time="5.387029" duration="1024" duration_time="0.023220" pkt_pos="6623870" pkt_size="578" sample_fmt="fltp" nb_samples="1024" channels="2" channel_layout="stereo"/>
        <frame media_type="audio" stream_index="1" key_frame="1" pts="238592" pts_time="5.410249" pkt_dts="238592" pkt_dts_time="5.410249" best_effort_timestamp="238592" best_effort_timestamp_time="5.410249" duration="1024" duration_time="0.023220" pkt_pos="6667488" pkt_size="594" sample_fmt="fltp" nb_samples="1024" channels="2" channel_layout="stereo"/>
        <frame media_type="audio" stream_index="1" key_frame="1" pts="239616" pts_time="5.433469" pkt_dts="239616" pkt_dts_time="5.433469" best_effort_timestamp="239616" best_effort_timestamp_time="5.433469" duration="1024" duration_time="0.023220" pkt_pos="6683996" pkt_size="598" sample_fmt="fltp" nb_samples="1024" channels="2" channel_layout="stereo"/>
        <frame media_type="audio" stream_index="1" key_frame="1" pts="240640" pts_time="5.456689" pkt_dts="240640" pkt_dts_time="5.456689" best_effort_timestamp="240640" best_effort_timestamp_time="5.456689" duration="1024" duration_time="0.023220" pkt_pos="6684594" pkt_size="641" sample_fmt="fltp" nb_samples="1024" channels="2" channel_layout="stereo"/>
        <frame media_type="audio" stream_index="1" key_frame="1" pts="241664" pts_time="5.479909" pkt_dts="241664" pkt_dts_time="5.479909" best_effort_timestamp="241664" best_effort_timestamp_time="5.479909" duration="1024" duration_time="0.023220" pkt_pos="6726039" pkt_size="601" sample_fmt="fltp" nb_samples="1024" channels="2" channel_layout="stereo"/>
        <frame media_type="audio" stream_index="1" key_frame="1" pts="242688" pts_time="5.503129" pkt_dts="242688" pkt_dts_time="5.503129" best_effort_timestamp="242688" best_effort_timestamp_time="5.503129" duration="1024" duration_time="0.023220" pkt_pos="6742077" pkt_size="552" sample_fmt="fltp" nb_samples="1024" channels="2" channel_layout="stereo"/>
        <frame media_type="audio" stream_index="1" key_frame="1" pts="243712" pts_time="5.526349" pkt_dts="243712" pkt_dts_time="5.526349" best_effort_timestamp="243712" best_effort_timestamp_time="5.526349" duration="1024" duration_time="0.023220" pkt_pos="6742629" pkt_size="547" sample_fmt="fltp" nb_samples="1024" channels="2" channel_layout="stereo"/>
        <frame media_type="audio" stream_index="1" key_frame="1" pts="244736" pts_time="5.549569" pkt_dts="244736" pkt_dts_time="5.549569" best_effort_timestamp="244736" best_effort_timestamp_time="5.549569" duration="1024" duration_time="0.023220" pkt_pos="6802808" pkt_size="555" sample_fmt="fltp" nb_samples="1024" channels="2" channel_layout="stereo"/>
        <frame media_type="audio" stream_index="1" key_frame="1" pts="245760" pts_time="5.572789" pkt_dts="245760" pkt_dts_time="5.572789" best_effort_timestamp="245760" best_effort_timestamp_time="5.572789" duration="1024" duration_time="0.023220" pkt_pos="6819803" pkt_size="573" sample_fmt="fltp" nb_samples="1024" channels="2" channel_layout="stereo"/>
        <frame media_type="audio" stream_index="1" key_frame="1" pts="246784" pts_time="5.596009" pkt_dts="246784" pkt_dts_time="5.596009" best_effort_timestamp="246784" best_effort_timestamp_time="5.596009" duration="1024" duration_time="0.023220" pkt_pos="6820376" pkt_size="557" sample_fmt="fltp" nb_samples="1024" channels="2" channel_layout="stereo"/>
        <frame media_type="audio" stream_index="1" key_frame="1" pts="247808" pts_time="5.619229" pkt_dts="247808" pkt_dts_time="5.619229" best_effort_timestamp="247808" best_effort_timestamp_time="5.619229" duration="1024" duration_time="0.023220" pkt_pos="6861064" pkt_size="607" sample_fmt="fltp" nb_samples="1024" channels="2" channel_layout="stereo"/>
        <frame media_type="audio" stream_index="1" key_frame="1" pts="248832" pts_time="5.642449" pkt_dts="248832" pkt_dts_time="5.642449" best_effort_timestamp="248832" best_effort_timestamp_time="5.642449" duration="1024" duration_time="0.023220" pkt_pos="6875659" pkt_size="581" sample_fmt="fltp" nb_samples="1024" channels="2" channel_layout="stereo"/>
        <frame media_type="audio" stream_index="1" key_frame="1" pts="249856" pts_time="5.665669" pkt_dts="249856" pkt_dts_time="5.665669" best_effort_timestamp="249856" best_effort_timestamp_time="5.665669" duration="1024" duration_time="0.023220" pkt_pos="6876240" pkt_size="572" sample_fmt="fltp" nb_samples="1024" channels="2" channel_layout="stereo"/>
        <frame media_type="audio" stream_index="1" key_frame="1" pts="250880" pts_time="5.688889" pkt_dts="250880" pkt_dts_time="5.688889" best_effort_timestamp="250880" best_effort_timestamp_time="5.688889" duration="1024" duration_time="0.023220" pkt_pos="6918990" pkt_size="504" sample_fmt="fltp" nb_samples="1024" channels="2" channel_layout="stereo"/>
        <frame media_type="audio" stream_index="1" key_frame="1" pts="251904" pts_time="5.712109" pkt_dts="251904" pkt_dts_time="5.712109" best_effort_timestamp="251904" best_effort_timestamp_time="5.712109" duration="1024" duration_time="0.023220" pkt_pos="6934377" pkt_size="543" sample_fmt="fltp" nb_samples="1024" channels="2" channel_layout="stereo"/>
        <frame media_type="audio" stream_index="1" key_frame="1" pts="252928" pts_time="5.735329" pkt_dts="252928" pkt_dts_time="5.735329" best_effort_timestamp="252928" best_effort_timestamp_time="5.735329" duration="1024" duration_time="0.023220" pkt_pos="6975188" pkt_size="536" sample_fmt="fltp" nb_samples="1024" channels="2" channel_layout="stereo"/>
        <frame media_type="audio" stream_index="1" key_frame="1" pts="253952" pts_time="5.758549" pkt_dts="253952" pkt_dts_time="5.758549" best_effort_timestamp="253952" best_effort_timestamp_time="5.758549" duration="1024" duration_time="0.023220" pkt_pos="6975724" pkt_size="522" sample_fmt="fltp" nb_samples="1024" channels="2" channel_layout="stereo"/>
        <frame media_type="audio" stream_index="1" key_frame="1" pts="254976" pts_time="5.781769" pkt_dts="254976" pkt_dts_time="5.781769" best_effort_timestamp="254976" best_effort_timestamp_time="5.781769" duration="1025" duration_time="0.023243" pkt_pos="6990829" pkt_size="642" sample_fmt="fltp" nb_samples="1024" channels="2" channel_layout="stereo"/>
        <frame media_type="audio" stream_index="1" key_frame="1" pts="256001" pts_time="5.805011" pkt_dts="256001" pkt_dts_time="5.805011" best_effort_timestamp="256001" best_effort_timestamp_time="5.805011" duration="1024" duration_time="0.023220" pkt_pos="7035515" pkt_size="569" sample_fmt="fltp" nb_samples="1024" channels="2" channel_layout="stereo"/>
        <frame media_type="audio" stream_index="1" key_frame="1" pts="257025" pts_time="5.828231" pkt_dts="257025" pkt_dts_time="5.828231" best_effort_timestamp="257025" best_effort_timestamp_time="5.828231" duration="1024" duration_time="0.023220" pkt_pos="7036084" pkt_size="565" sample_fmt="fltp" nb_samples="1024" channels="2" channel_layout="stereo"/>
        <frame media_type="audio" stream_index="1" key_frame="1" pts="258049" pts_time="5.851451" pkt_dts="258049" pkt_dts_time="5.851451" best_effort_timestamp="258049" best_effort_timestamp_time="5.851451" duration="1024" duration_time="0.023220" pkt_pos="7053326" pkt_size="554" sample_fmt="fltp" nb_samples="1024" channels="2" channel_layout="stereo"/>
        <frame media_type="audio" stream_index="1" key_frame="1" pts="259073" pts_time="5.874671" pkt_dts="259073" pkt_dts_time="5.874671" best_effort_timestamp="259073" best_effort_timestamp_time="5.874671" duration="1024" duration_time="0.023220" pkt_pos="7098853" pkt_size="537" sample_fmt="fltp" nb_samples="1024" channels="2" channel_layout="stereo"/>
        <frame media_type="audio" stream_index="1" key_frame="1" pts="260097" pts_time="5.897891" pkt_dts="260097" pkt_dts_time="5.897891" best_effort_timestamp="260097" best_effort_timestamp_time="5.897891" duration="1024" duration_time="0.023220" pkt_pos="7099390" pkt_size="554" sample_fmt="fltp" nb_samples="1024" channels="2" channel_layout="stereo"/>
        <frame media_type="audio" stream_index="1" key_frame="1" pts="261121" pts_time="5.921111" pkt_dts="261121" pkt_dts_time="5.921111" best_effort_timestamp="261121" best_effort_timestamp_time="5.921111" duration="1024" duration_time="0.023220" pkt_pos="7118789" pkt_size="563" sample_fmt="fltp" nb_samples="1024" channels="2" channel_layout="stereo"/>
        <frame media_type="audio" stream_index="1" key_frame="1" pts="262145" pts_time="5.944331" pkt_dts="262145" pkt_dts_time="5.944331" best_effort_timestamp="262145" best_effort_timestamp_time="5.944331" duration="1024" duration_time="0.023220" pkt_pos="7146921" pkt_size="519" sample_fmt="fltp" nb_samples="1024" channels="2" channel_layout="stereo"/>
        <frame media_type="audio" stream_index="1" key_frame="1" pts="263169" pts_time="5.967551" pkt_dts="263169" pkt_dts_time="5.967551" best_effort_timestamp="263169" best_effort_timestamp_time="5.967551" duration="1024" duration_time="0.023220" pkt_pos="7147440" pkt_size="522" sample_fmt="fltp" nb_samples="1024" channels="2" channel_layout="stereo"/>
        <frame media_type="audio" stream_index="1" key_frame="1" pts="264193" pts_time="5.990771" pkt_dts="264193" pkt_dts_time="5.990771" best_effort_timestamp="264193" best_effort_timestamp_time="5.990771" duration="1024" duration_time="0.023220" pkt_pos="7147962" pkt_size="478" sample_fmt="fltp" nb_samples="1024" channels="2" channel_layout="stereo"/>
    </frames>
</ffprobe>
